<svg xmlns="http://www.w3.org/2000/svg" viewBox="0 0 24 24">
  <path
    className="uim-tertiary"
    d="M16 22H8a3.003 3.003 0 0 1-3-3V5a3.003 3.003 0 0 1 3-3h8a3.003 3.003 0 0 1 3 3v14a3.003 3.003 0 0 1-3 3Z"
  ></path>
  <path
    className="uim-primary"
    d="M12 18a.99.99 0 0 1-.92-1.38 1.149 1.149 0 0 1 .21-.33 1.01 1.01 0 0 1 .91-.27.653.653 0 0 1 .18.06.739.739 0 0 1 .18.09l.15.12a1.037 1.037 0 0 1 .21.33.99.99 0 0 1-.21 1.09 1.451 1.451 0 0 1-.33.22.99.99 0 0 1-.38.07Z"
  ></path>
</svg>
