<svg xmlns="http://www.w3.org/2000/svg" viewBox="0 0 24 24"><path class="uim-primary" d="M12 2a1 1 0 0 0-1 1v2a1 1 0 1 0 2 0V3a1 1 0 0 0-1-1zm0 16a1 1 0 0 0-1 1v2a1 1 0 0 0 2 0v-2a1 1 0 0 0-1-1zm9-7h-2a1 1 0 0 0 0 2h2a1 1 0 0 0 0-2zM6 12a1 1 0 0 0-1-1H3a1 1 0 0 0 0 2h2a1 1 0 0 0 1-1zm11.196-3a1 1 0 0 0 .867.5.99.99 0 0 0 .5-.135l1.73-1a1 1 0 1 0-1-1.731l-1.73 1A1 1 0 0 0 17.195 9zM6.804 15a1 1 0 0 0-1.367-.366l-1.731 1a1 1 0 1 0 1 1.731l1.731-1A1 1 0 0 0 6.804 15zM15 6.804a1 1 0 0 0 1.366-.367l1-1.731a1 1 0 1 0-1.732-1l-1 1.731A1 1 0 0 0 15 6.804zM3.706 8.365l1.731 1a.99.99 0 0 0 .5.135 1 1 0 0 0 .5-1.866l-1.731-1a1 1 0 1 0-1 1.731zM9 17.195a1 1 0 0 0-1.366.367l-1 1.732a1 1 0 0 0 1.732 1l1-1.732A1 1 0 0 0 9 17.196zm11.294-1.561-1.731-1a1 1 0 1 0-1 1.731l1.731 1a.99.99 0 0 0 .499.135 1 1 0 0 0 .501-1.866zm-3.928 1.928a1 1 0 1 0-1.732 1l1 1.732a1 1 0 1 0 1.732-1z"></path></svg>