<svg
  xmlns="http://www.w3.org/2000/svg"
  enable-background="new 0 0 24 24"
  viewBox="0 0 24 24"
  width="1em"
>
  <path
    class="uim-secondary"
    d="M18 10v9c0 .353-.073.686-.185 1H19a3.003 3.003 0 0 0 3-3v-3a4.005 4.005 0 0 0-4-4zM6 19v-9a4.005 4.005 0 0 0-4 4v3a3.003 3.003 0 0 0 3 3h1.185A2.976 2.976 0 0 1 6 19z"
  ></path>
  <path
    class="uim-quaternary"
    d="M15 22H9a3.003 3.003 0 0 1-3-3v-1a4.005 4.005 0 0 1 4-4h4a4.005 4.005 0 0 1 4 4v1a3.003 3.003 0 0 1-3 3z"
  ></path>
  <path
    class="uim-tertiary"
    d="M14 6h-4a4.005 4.005 0 0 0-4 4v8a4.005 4.005 0 0 1 4-4h4a4.005 4.005 0 0 1 4 4v-8a4.005 4.005 0 0 0-4-4z"
  ></path>
  <path
    class="uim-primary"
    d="M10 6h1V5a1 1 0 1 1 2 0v1h1c.347 0 .679.059 1 .142V5a3 3 0 1 0-6 0v1.142A3.969 3.969 0 0 1 10 6zM13 12h-2a1 1 0 1 1 0-2h2a1 1 0 1 1 0 2z"
  ></path>
</svg>
