<svg xmlns="http://www.w3.org/2000/svg" enable-background="new 0 0 24 24" viewBox="0 0 24 24"><path class="uim-tertiary" d="M18 2H6a3.003 3.003 0 0 0-3 3v11a3.003 3.003 0 0 0 3 3h2.586l2.707 2.707a.997.997 0 0 0 1.357.052L15.87 19H18a3.003 3.003 0 0 0 3-3V5a3.003 3.003 0 0 0-3-3zm-6 10.285a3 3 0 1 1 0-5.999 3 3 0 0 1 0 6z"></path><path class="uim-quaternary" d="M12 12.285a3 3 0 1 1 3-2.999 3.003 3.003 0 0 1-3 3z"></path><path class="uim-primary" d="M16.6 13.607a4.985 4.985 0 0 0-2.281-2.442A2.984 2.984 0 0 1 12 12.285a2.98 2.98 0 0 1-2.32-1.119 4.955 4.955 0 0 0-2.28 2.441A1 1 0 0 0 8.32 15h7.36a1 1 0 0 0 .92-1.393z"></path></svg>