<svg xmlns="http://www.w3.org/2000/svg" viewBox="0 0 24 24"><path class="uim-tertiary" d="M7.00293 8.05957a3 3 0 1 1 3-3A3.00328 3.00328 0 0 1 7.00293 8.05957zm0-4a1 1 0 1 0 1 1A1.0013 1.0013 0 0 0 7.00293 4.05957zM17.00293 12.05957a3 3 0 1 1 3-3A3.00328 3.00328 0 0 1 17.00293 12.05957zm0-4a1 1 0 1 0 1 1A1.0013 1.0013 0 0 0 17.00293 8.05957zM7.00293 22.05957a3 3 0 1 1 3-3A3.00328 3.00328 0 0 1 7.00293 22.05957zm0-4a1 1 0 1 0 1 1A1.0013 1.0013 0 0 0 7.00293 18.05957z"></path><path class="uim-primary" d="M17.00293,12.05957a2.98168,2.98168,0,0,1-1.15424-.2323,2.00186,2.00186,0,0,1-1.84576,1.2323h-4a3.95376,3.95376,0,0,0-2,.55646V7.87531a2.80519,2.80519,0,0,1-2-.00007v8.3686a2.89912,2.89912,0,0,1,2.1543.048,2.00179,2.00179,0,0,1,1.8457-1.23224h4a4.00437,4.00437,0,0,0,3.90619-3.15509A2.96013,2.96013,0,0,1,17.00293,12.05957Z"></path></svg>