<svg
  xmlns="http://www.w3.org/2000/svg"
  enable-background="new 0 0 24 24"
  viewBox="0 0 24 24"
>
  <path
    class="uim-tertiary"
    d="M10.071 20.586a.997.997 0 0 1-.707-.293l-5.657-5.657a1 1 0 0 1 1.414-1.414l5.657 5.657a1 1 0 0 1-.707 1.707zM19.586 11.071a.997.997 0 0 1-.707-.293l-5.657-5.657a1 1 0 1 1 1.414-1.414l5.657 5.657a1 1 0 0 1-.707 1.707z"
  ></path>
  <path
    class="uim-primary"
    d="M6.272 11h11.456v2H6.272z"
    transform="rotate(-45 12 12)"
  ></path>
  <path
    class="uim-quaternary"
    d="M19.586 8.242a.997.997 0 0 1-.707-.293L16.05 5.121a1 1 0 0 1 1.414-1.414l2.829 2.828a1 1 0 0 1-.707 1.707z"
  ></path>
  <path
    class="uim-primary"
    d="m19.586 5.828.71-.71a1 1 0 1 0-1.415-1.413l-.71.71 1.415 1.413z"
  ></path>
  <path
    class="uim-quaternary"
    d="M7.243 20.586a.997.997 0 0 1-.707-.293l-2.829-2.828a1 1 0 0 1 1.414-1.414l2.829 2.828a1 1 0 0 1-.707 1.707z"
  ></path>
  <path
    class="uim-primary"
    d="m4.414 18.172-.71.71a1 1 0 0 0 1.415 1.413l.71-.71-1.415-1.413z"
  ></path>
</svg>
