<svg xmlns="http://www.w3.org/2000/svg" viewBox="0 0 24 24">
  <path
    className="uim-tertiary"
    d="m21.2 6.71-7.58 7.58a2.994 2.994 0 0 1-4.24 0L1.8 6.71A2.992 2.992 0 0 1 4.5 5h14a2.992 2.992 0 0 1 2.7 1.71z"
  ></path>
  <path
    className="uim-quaternary"
    d="m21.2 6.71-7.58 7.58a2.994 2.994 0 0 1-4.24 0L1.8 6.71c-.197.402-.3.843-.3 1.29v10a3.009 3.009 0 0 0 3 3h14a3.009 3.009 0 0 0 3-3V8c0-.447-.103-.888-.3-1.29z"
  ></path>
  <path
    className="uim-primary"
    d="M17.672 12a1 1 0 0 1-.707-.293l-3.172-3.17a3.243 3.243 0 0 1 3.878-5.124 3.316 3.316 0 0 1 3.879.537 3.246 3.246 0 0 1 0 4.586l-3.171 3.171a1 1 0 0 1-.707.293z"
  ></path>
</svg>
