<svg xmlns="http://www.w3.org/2000/svg" viewBox="0 0 24 24">
  <path
    class="uim-tertiary"
    d="M9.54 15.46a1 1 0 0 1-.708-1.706l4.922-4.922a1 1 0 1 1 1.414 1.414l-4.922 4.922a.997.997 0 0 1-.707.293Z"
  ></path>
  <path
    class="uim-primary"
    d="M16.1 13.818a1 1 0 0 1-.707-1.707l3.881-3.88a2.482 2.482 0 0 0 0-3.505 2.54 2.54 0 0 0-3.504 0l-3.882 3.881a1 1 0 1 1-1.414-1.414l3.881-3.881a4.478 4.478 0 0 1 6.333 6.333l-3.88 3.88a.997.997 0 0 1-.708.293zm-9.622 8.18a4.476 4.476 0 0 1-3.167-7.643l3.882-3.88a1 1 0 1 1 1.414 1.414l-3.881 3.88a2.482 2.482 0 0 0 0 3.505 2.54 2.54 0 0 0 3.504 0l3.882-3.881a1 1 0 0 1 1.414 1.414l-3.881 3.881a4.464 4.464 0 0 1-3.167 1.31z"
  ></path>
</svg>
