<svg
  xmlns="http://www.w3.org/2000/svg"
  enable-background="new 0 0 24 24"
  viewBox="0 0 24 24"
>
  <path
    class="uim-tertiary"
    d="M8.444 3.111a2 2 0 0 0-2 2v13.556a2.222 2.222 0 0 1-2.222 2.222h14.445A3.333 3.333 0 0 0 22 17.556V5.11a2 2 0 0 0-2-2H8.444z"
  ></path>
  <path
    class="uim-quaternary"
    d="M6.444 18.667V7.556H4a2 2 0 0 0-2 2v9.333a2 2 0 0 0 2 2h.222a2.222 2.222 0 0 0 2.222-2.222z"
  ></path>
  <path
    class="uim-primary"
    d="M17 9h-6a1 1 0 1 1 0-2h6a1 1 0 0 1 0 2zm0 4h-1a1 1 0 1 1 0-2h1a1 1 0 1 1 0 2zm-5 0h-1a1 1 0 1 1 0-2h1a1 1 0 1 1 0 2zm5 4h-1a1 1 0 1 1 0-2h1a1 1 0 1 1 0 2zm-5 0h-1a1 1 0 1 1 0-2h1a1 1 0 1 1 0 2z"
  ></path>
</svg>
