<svg xmlns="http://www.w3.org/2000/svg" enable-background="new 0 0 24 24" viewBox="0 0 24 24"><path class="uim-tertiary" d="M15 18H5a3.003 3.003 0 0 1-3-3V5a3.003 3.003 0 0 1 3-3h10a3.003 3.003 0 0 1 3 3v10a3.003 3.003 0 0 1-3 3z"></path><path class="uim-quaternary" d="M18 5v10a3.003 3.003 0 0 1-3 3H5a3.003 3.003 0 0 0 3 3h10a3.003 3.003 0 0 0 3-3V8a3.003 3.003 0 0 0-3-3z"></path><path class="uim-primary" d="M13 12a.996.996 0 0 1-.65-.241L11 10.628l-1.354 1.136A1.002 1.002 0 0 1 8 11V2h6v9a1 1 0 0 1-1 1z"></path></svg>