<svg
  xmlns="http://www.w3.org/2000/svg"
  enable-background="new 0 0 24 24"
  viewBox="0 0 24 24"
>
  <path
    class="uim-secondary"
    d="M19.484 21.984a2.493 2.493 0 0 1-1.767-.731l-2.98-2.98a2.5 2.5 0 0 1 3.535-3.536l2.98 2.98a2.5 2.5 0 0 1 .001 3.535 2.493 2.493 0 0 1-1.769.732zm1.415-1.085z"
  ></path>
  <path
    class="uim-primary"
    d="m13.187 14.6.996.997a2.485 2.485 0 0 1 1.414-1.414l-.996-.996a7.027 7.027 0 0 1-1.414 1.414z"
  ></path>
  <circle cx="9.05" cy="9.05" r="5" class="uim-quaternary"></circle>
  <path
    class="uim-tertiary"
    d="M9 2a7 7 0 1 0 0 14A7 7 0 0 0 9 2zm.05 12.05a5 5 0 1 1 0-10 5 5 0 0 1 0 10z"
  ></path>
</svg>
