<svg
  xmlns="http://www.w3.org/2000/svg"
  enable-background="new 0 0 24 24"
  viewBox="0 0 24 24"
>
  <circle cx="12" cy="10" r="4" class="uim-quaternary"></circle>
  <path
    class="uim-primary"
    d="M14.976 12.65A3.974 3.974 0 0 1 12 14a3.974 3.974 0 0 1-2.975-1.35 7.997 7.997 0 0 0-4.815 5.6A10 10 0 0 0 12 22a10 10 0 0 0 7.79-3.75 7.986 7.986 0 0 0-4.814-5.6z"
  ></path>
  <path
    class="uim-tertiary"
    d="M9.025 12.65A3.969 3.969 0 0 1 8 10a4 4 0 1 1 8 0 3.969 3.969 0 0 1-1.024 2.65 7.985 7.985 0 0 1 4.807 5.578 9.932 9.932 0 0 0 2.197-6.238c0-5.512-4.468-9.98-9.98-9.98s-9.98 4.468-9.98 9.98c0 2.362.825 4.529 2.197 6.238a7.996 7.996 0 0 1 4.808-5.578z"
  ></path>
</svg>
