<svg
  width="92"
  height="92"
  viewBox="0 0 92 92"
  fill="none"
  xmlns="http://www.w3.org/2000/svg"
>
  <rect width="92" height="92" fill="#171717" />
  <path
    d="M56.3431 48.6573L25.4577 28.4308V68.8762C25.6657 70.3767 24.6183 71.7657 23.1179 71.9737C21.6174 72.1817 20.2358 71.1344 20.0279 69.6339C19.9907 69.3813 19.9907 69.1287 20.0279 68.8762V23.1421C20.013 22.0798 20.5181 21.0696 21.3872 20.4605C22.2043 19.9109 23.2813 19.9109 24.0984 20.4605L59.0543 43.3314C60.3913 44.2896 60.837 46.0797 60.0942 47.5504C59.5372 48.8429 58.0441 49.4372 56.7516 48.8801C56.6105 48.8206 56.4768 48.7463 56.3431 48.6573ZM69.238 20C67.6262 20.1115 66.408 21.5079 66.5194 23.1198V63.5652L35.634 43.309C34.453 42.5514 32.8782 42.8931 32.1205 44.0816C32.0463 44.2004 31.9795 44.3193 31.9275 44.4456C31.1846 45.9163 31.6229 47.7064 32.9674 48.6646L67.9233 71.5355C68.7478 72.0851 69.8248 72.0851 70.6419 71.5355C71.511 70.9189 72.0161 69.9161 71.9938 68.8539V23.1198C72.0978 21.5079 70.8796 20.1188 69.2752 20.0148C69.2677 20.0148 69.2529 20.0148 69.2454 20.0148L69.238 20Z"
    fill="#EAEAEA"
  />
</svg>
