<svg
  width="22"
  height="24"
  viewBox="0 0 22 24"
  fill="currentColor"
  xmlns="http://www.w3.org/2000/svg"
>
  <path
    d="M12.3926 0C18.5641 0 21.631 2.93732 21.631 7.62939C21.631 11.1389 19.4728 13.4276 16.5574 13.8091C19.0185 14.3051 20.4572 15.7165 20.7223 18.5012L20.7606 19.0133L20.7941 19.4921L20.8231 19.9399L20.8432 20.2776L20.8647 20.676L20.8759 20.9034L20.8919 21.2646L20.9048 21.6057L20.9111 21.8018L20.9198 22.116L20.9272 22.4753L20.9299 22.6489L20.9348 23.152L20.9363 23.677L20.9364 23.9908H14.5721L14.5724 23.8599L14.5747 23.6057L14.5785 23.358L14.5895 22.7581L14.5923 22.557L14.5945 22.2416L14.5942 22.0399L14.5923 21.8284L14.5897 21.6625L14.5845 21.4301L14.5769 21.1836L14.5668 20.9216L14.5538 20.6424L14.5462 20.4959L14.5332 20.267L14.5182 20.0265L14.495 19.6868L14.475 19.4167C14.4693 19.3334 14.4626 19.2521 14.4551 19.1727L14.4388 19.0164C14.2286 17.1718 13.4969 16.4179 12.2438 16.1664L12.1381 16.1466C12.0669 16.1341 11.9941 16.1232 11.9196 16.1137L11.8067 16.1004C11.7877 16.0983 11.7686 16.0964 11.7494 16.0945L11.6329 16.0842L11.514 16.0759L11.3926 16.0693L11.2702 16.0646L11.1455 16.0615L11.0183 16.06L0.944122 16.0598V11.0626H11.2568C11.4254 11.0626 11.5888 11.0594 11.747 11.0529L11.9035 11.0453L12.0564 11.0354L12.2059 11.0232C12.2306 11.021 12.255 11.0187 12.2794 11.0163L12.4237 11.0007C12.5187 10.9895 12.6114 10.9767 12.7018 10.9624L12.8357 10.9396C14.5091 10.6363 15.3458 9.74792 15.3458 8.01441C15.3458 6.06897 13.9828 4.88992 11.2568 4.88992H0.944122V0H12.3926ZM7.67352 20.2655C8.50852 20.2655 8.85788 20.7291 8.98234 21.1729L8.99876 21.2367L9.01224 21.2999L9.02101 21.3498L9.02476 21.3745L9.03105 21.4233L9.03578 21.471L9.03759 21.4944L9.04016 21.5404L9.04094 21.5628L9.04156 21.6065V23.9908H0.944122V20.2655H7.67352Z"
  />
</svg>
