<?xml version="1.0" encoding="UTF-8"?><svg
  id="b"
  xmlns="http://www.w3.org/2000/svg"
  viewBox="0 0 128 128"
  fill="currentColor"
>
  <path
    d="m122,0H6C2.69,0,0,2.69,0,6v116c0,3.31,2.69,6,6,6h116c3.31,0,6-2.69,6-6V6c0-3.31-2.69-6-6-6Zm-53,64.55h-18.3v51.45h-14.49v-51.45h-18.21v-11.55h51v11.55Zm46.01,42.52c-1.33,2.38-3.12,4.31-5.4,5.79-2.27,1.48-4.92,2.54-7.93,3.18-3.01.64-6.2.96-9.55.96s-6.71-.29-9.81-.88c-3.1-.58-5.79-1.46-8.06-2.63v-14.03c2.53,2.13,5.29,3.73,8.26,4.8,2.97,1.07,5.97,1.6,9,1.6,1.78,0,3.33-.16,4.65-.48,1.33-.32,2.43-.77,3.32-1.34.89-.57,1.55-1.24,1.99-2.02.44-.77.66-1.61.66-2.52,0-1.23-.35-2.32-1.05-3.29-.7-.96-1.65-1.86-2.86-2.67s-2.64-1.61-4.3-2.37c-1.66-.76-3.45-1.53-5.38-2.32-4.89-2.05-8.54-4.54-10.95-7.49-2.4-2.95-3.61-6.52-3.61-10.69,0-3.27.66-6.09,1.97-8.44,1.31-2.35,3.1-4.29,5.35-5.81,2.26-1.52,4.87-2.64,7.84-3.35,2.97-.72,6.12-1.07,9.44-1.07s6.15.2,8.67.59c2.52.39,4.84,1,6.97,1.82v13.11c-1.05-.73-2.19-1.37-3.43-1.93-1.24-.56-2.51-1.02-3.82-1.38-1.31-.37-2.61-.64-3.91-.81-1.3-.18-2.53-.26-3.69-.26-1.6,0-3.06.15-4.37.46-1.31.31-2.42.74-3.32,1.29-.9.56-1.6,1.22-2.1,1.99s-.74,1.64-.74,2.61c0,1.05.28,1.99.83,2.83.55.83,1.34,1.62,2.36,2.37,1.02.75,2.26,1.48,3.71,2.19,1.46.72,3.1,1.45,4.94,2.21,2.51,1.05,4.76,2.17,6.75,3.35,1.99,1.18,3.71,2.52,5.13,4.01,1.43,1.49,2.52,3.19,3.28,5.11.76,1.91,1.14,4.14,1.14,6.68,0,3.51-.66,6.45-1.99,8.83Z"
  />
</svg>
