<svg xmlns="http://www.w3.org/2000/svg" viewBox="0 0 140 140">
  <rect fill="#208acb" width="140" height="140"></rect>
  <path fill="#fff" d="m83.92,73.58l-41.58-27.23v54.45c.28,2.02-1.13,3.89-3.15,4.17-2.02.28-3.88-1.13-4.16-3.15-.05-.34-.05-.68,0-1.02v-61.57c-.02-1.43.66-2.79,1.83-3.61,1.1-.74,2.55-.74,3.65,0l47.06,30.79c1.8,1.29,2.4,3.7,1.4,5.68-.75,1.74-2.76,2.54-4.5,1.79-.19-.08-.37-.18-.55-.3h0Zm17.36-38.58c-2.17.15-3.81,2.03-3.66,4.2v54.45l-41.58-27.27c-1.59-1.02-3.71-.56-4.73,1.04-.1.16-.19.32-.26.49-1,1.98-.41,4.39,1.4,5.68l47.06,30.79c1.11.74,2.56.74,3.66,0,1.17-.83,1.85-2.18,1.82-3.61v-61.57c.14-2.17-1.5-4.04-3.66-4.18-.01,0-.03,0-.04,0h0Z"></path>
</svg>
