<svg width="256" height="256" viewBox="0 0 256 256" fill="none" xmlns="http://www.w3.org/2000/svg">
<rect width="256" height="256" fill="#D94162"/>
<path d="M110.494 146.546C108.193 146.546 105.976 146.546 103.643 146.546C103.624 146.165 103.594 145.834 103.594 145.503C103.59 141.901 103.648 138.298 103.56 134.698C103.53 133.469 103.277 132.203 102.883 131.036C102.199 129.014 99.9256 128.625 98.2254 129.015C97.7334 129.128 97.2352 129.344 96.8192 129.629C96.1034 130.119 95.5938 130.687 95.6086 131.724C95.6734 136.276 95.6365 140.83 95.6365 145.383C95.6365 145.723 95.6365 146.064 95.6365 146.475C92.8648 146.475 90.1742 146.475 87.3822 146.475C87.3667 146.141 87.3381 145.808 87.3378 145.474C87.3345 141.873 87.3587 138.27 87.32 134.669C87.3099 133.735 87.1929 132.782 86.9763 131.874C86.2074 128.649 82.4301 128.087 80.4203 129.841C79.6822 130.486 79.3361 131.171 79.3521 132.208C79.4197 136.587 79.3807 140.968 79.3807 145.348C79.3807 145.692 79.3807 146.036 79.3807 146.462C76.5555 146.462 73.787 146.462 70.9623 146.462C70.9623 138.382 70.9623 130.331 70.9623 122.221C73.7624 122.221 76.5129 122.221 79.3069 122.221C79.3557 122.538 79.4012 122.834 79.4478 123.136C84.3239 120.275 88.8096 120.699 93.0009 124.479C94.6715 122.984 96.6158 121.925 98.9157 121.552C102.038 121.045 105.026 121.259 107.673 123.185C109.957 124.846 111.485 127.136 111.66 129.914C111.938 134.329 111.837 138.768 111.89 143.197C111.903 144.261 111.892 145.324 111.892 146.546C111.412 146.546 110.995 146.546 110.494 146.546Z" fill="white"/>
<path d="M120.681 145.035C117.894 142.894 116.064 140.24 115.468 136.777C114.788 132.819 115.555 129.248 118.081 126.08C120.068 123.588 122.674 122.093 125.779 121.703C128.47 121.366 131.161 121.649 133.613 123.032C133.749 123.108 133.915 123.133 134.179 123.218C134.179 119.053 134.179 114.976 134.179 110.824C136.963 110.824 139.654 110.824 142.424 110.824C142.424 122.672 142.424 134.528 142.424 146.465C139.727 146.465 137.012 146.465 134.265 146.465C134.223 146.167 134.184 145.888 134.129 145.492C133.86 145.579 133.623 145.628 133.412 145.73C129.709 147.503 125.979 147.573 122.228 145.904C121.708 145.673 121.227 145.355 120.681 145.035ZM124.249 131.178C122.976 133.766 123.114 136.284 125.027 138.447C127.275 140.99 131.212 140.825 133.685 138.466C133.972 138.192 134.168 137.686 134.178 137.282C134.228 135.325 134.216 133.366 134.186 131.408C134.181 131.069 134.073 130.651 133.857 130.409C131.412 127.669 126.592 127.492 124.249 131.178Z" fill="white"/>
<path d="M216.952 122.039C217.91 122.425 218.803 122.785 219.738 123.162C219.781 122.843 219.819 122.565 219.865 122.225C222.564 122.225 225.258 122.225 228.028 122.225C228.028 130.282 228.028 138.33 228.028 146.462C225.336 146.462 222.623 146.462 219.868 146.462C219.829 146.114 219.792 145.778 219.752 145.417C218.642 145.808 217.579 146.293 216.463 146.557C212.381 147.521 208.627 146.924 205.335 144.119C202.725 141.895 201.29 139.124 200.932 135.715C200.612 132.675 201.184 129.885 202.794 127.287C204.571 124.417 207.111 122.625 210.369 121.829C212.554 121.296 214.726 121.506 216.952 122.039ZM217.312 139.658C217.783 139.401 218.269 139.168 218.722 138.883C219.601 138.328 219.88 137.537 219.827 136.486C219.739 134.735 219.825 132.976 219.785 131.222C219.777 130.862 219.637 130.407 219.39 130.167C216.849 127.683 212.227 127.606 210.131 130.708C208.275 133.456 208.757 137.837 212.207 139.553C213.846 140.368 215.508 140.324 217.312 139.658Z" fill="white"/>
<path d="M173.284 140.493C173.284 142.53 173.284 144.481 173.284 146.488C170.483 146.488 167.791 146.488 165.053 146.488C165.011 146.121 164.972 145.787 164.931 145.437C157.993 148.368 151.924 147.479 147.826 140.772C144.678 135.618 145.592 129.323 149.754 125.099C153.346 121.455 158.837 120.169 164.911 123.146C164.954 122.857 164.996 122.584 165.059 122.162C166.378 122.162 167.718 122.162 169.058 122.162C170.41 122.162 171.763 122.162 173.284 122.162C173.284 128.28 173.284 134.343 173.284 140.493ZM157.987 128.704C154.95 129.789 153.718 133.332 154.547 136.033C156.072 141 161.853 141.126 164.584 138.363C164.798 138.146 164.96 137.774 164.965 137.472C164.997 135.343 164.997 133.214 164.966 131.085C164.961 130.781 164.813 130.4 164.598 130.19C162.753 128.381 160.543 128.003 157.987 128.704Z" fill="white"/>
<path d="M189.572 147.062C186.466 146.45 184.231 144.767 182.87 142C182.135 140.505 181.746 138.896 181.755 137.207C181.767 134.902 181.758 132.598 181.758 130.294C181.758 129.985 181.758 129.677 181.758 129.26C180.115 129.26 178.575 129.26 176.977 129.26C176.977 126.808 176.977 124.464 176.977 122.01C178.545 122.01 180.084 122.01 181.73 122.01C181.73 119.27 181.73 116.637 181.73 113.933C184.527 113.933 187.217 113.933 190.015 113.933C190.015 116.564 190.015 119.198 190.015 121.938C192.812 121.938 195.503 121.938 198.276 121.938C198.276 124.41 198.276 126.775 198.276 129.248C195.559 129.248 192.868 129.248 190.059 129.248C190.059 130.525 190.059 131.696 190.059 132.868C190.059 133.905 190.088 134.943 190.053 135.978C189.972 138.364 191.467 139.571 193.649 139.603C194.722 139.618 195.8 139.372 196.875 139.237C197.269 139.187 197.66 139.113 198.168 139.032C198.35 140.302 198.527 141.533 198.704 142.764C198.81 143.496 198.909 144.23 199.026 144.96C199.137 145.656 199.033 146.158 198.211 146.361C195.755 146.966 193.284 147.386 190.744 147.232C190.376 147.21 190.012 147.123 189.572 147.062Z" fill="white"/>
<path d="M45.97 146.363C41.4354 147.656 37.1575 147.254 33.2721 144.638C29.8453 142.331 28.1557 138.987 28.0107 134.844C27.9095 131.951 28.5172 129.288 30.2308 126.907C32.2934 124.042 35.0897 122.412 38.5409 121.806C41.9386 121.209 45.2062 121.529 48.2497 123.211C51.3574 124.929 53.2589 127.573 53.9377 131.07C54.0008 131.395 53.9461 131.743 53.9461 132.192C52.5983 132.192 51.3384 132.192 50.0785 132.192C48.9833 132.192 47.8867 132.221 46.7938 132.17C46.5268 132.157 46.1003 131.932 46.0377 131.719C45.2845 129.158 42.679 128.288 40.5905 128.608C35.496 129.39 34.7712 135.405 37.4053 138.348C39.7108 140.925 44.9098 140.602 46.0384 136.869C46.1022 136.658 46.4072 136.373 46.6035 136.37C49.0166 136.336 51.4303 136.348 53.8281 136.348C54.2995 139.504 51.3499 144.642 45.97 146.363Z" fill="white"/>
<path d="M64.8347 146.546C62.4774 146.546 60.2042 146.546 57.8477 146.546C57.8477 138.365 57.8477 130.24 57.8477 122.052C60.5507 122.052 63.2399 122.052 65.9971 122.052C65.9971 130.182 65.9971 138.286 65.9971 146.546C65.638 146.546 65.2784 146.546 64.8347 146.546Z" fill="white"/>
<circle cx="61.8951" cy="113.842" r="4.84215" fill="white"/>
</svg>
