<svg xmlns="http://www.w3.org/2000/svg" width="92" height="92" fill="none">
  <path fill="#171717" d="M0 0h92v92H0z" />
  <path
    fill="#EAEAEA"
    d="M56.343 48.657 25.458 28.431v40.445c.208 1.5-.84 2.89-2.34 3.098a2.74 2.74 0 0 1-3.09-3.098V23.142a3.22 3.22 0 0 1 1.36-2.681 2.435 2.435 0 0 1 2.71 0l34.956 22.87a3.34 3.34 0 0 1 1.04 4.22 2.54 2.54 0 0 1-3.75 1.106ZM69.238 20a2.927 2.927 0 0 0-2.719 3.12v40.445L35.634 43.31a2.54 2.54 0 0 0-3.707 1.137 3.331 3.331 0 0 0 1.04 4.219l34.956 22.87c.825.55 1.902.55 2.719 0a3.203 3.203 0 0 0 1.352-2.681V23.12a2.919 2.919 0 0 0-2.719-3.105h-.03L69.238 20Z"
  />
</svg>
