<svg xmlns="http://www.w3.org/2000/svg" width="1000" height="1000" fill="none">
  <path fill="#FFD354" d="M0 0h1000v1000H0z" />
  <path
    fill="#333"
    d="M398.883 691 115 453.829l464.996 101.776L398.883 691ZM590.596 556.987l-173.74 131.25 331.35-82.895-157.61-48.355ZM886 274.684 759.727 601.658l-163.601-49.737L886 274.684ZM557.876 401.789l91.248 89.343L877.705 271 557.876 401.789ZM513.634 369.553l129.96 126.184-55.302 52.5-23.504-4.605-51.154-174.079ZM505.8 370.474l50.232 172.237-98.621-22.106L505.8 370.474ZM482.296 421.132l-31.337 98.552-323.516-70.921 354.853-27.631Z"
  />
</svg>
