<svg xmlns="http://www.w3.org/2000/svg" viewBox="0 0 239.999 234">
  <path
    d="M-1075.5-608h-155a42.31,42.31,0,0,1-16.555-3.336,42.293,42.293,0,0,1-13.508-9.1,42.3,42.3,0,0,1-9.1-13.508A42.307,42.307,0,0,1-1273-650.5v-149a42.308,42.308,0,0,1,3.336-16.555,42.3,42.3,0,0,1,9.1-13.508,42.3,42.3,0,0,1,13.508-9.1A42.307,42.307,0,0,1-1230.5-842h155a42.307,42.307,0,0,1,16.555,3.336,42.3,42.3,0,0,1,13.508,9.1,42.3,42.3,0,0,1,9.1,13.508A42.311,42.311,0,0,1-1033-799.5v149a42.309,42.309,0,0,1-3.336,16.555,42.3,42.3,0,0,1-9.1,13.508,42.294,42.294,0,0,1-13.508,9.1A42.31,42.31,0,0,1-1075.5-608Zm-25.279-149.706c-.241,0-.484,0-.721.007-7.072,0-12.378.985-16.7,3.1a36.15,36.15,0,0,0-12.1,9.5,40.876,40.876,0,0,0-7.5,13.7,51.077,51.077,0,0,0-2.5,15.9,51.094,51.094,0,0,0,2.1,14.6,36.755,36.755,0,0,0,6.9,13.1,33.793,33.793,0,0,0,12.6,9.5c5.25,2.323,11.71,3.5,19.2,3.5.457.01.926.015,1.435.015A67.132,67.132,0,0,0-1085.3-676a42.593,42.593,0,0,0,10-3,2.3,2.3,0,0,0,.7-.7,4.986,4.986,0,0,0,.2-1.2v-15.3c0-.659-.131-.993-.389-.993a.718.718,0,0,0-.411.193,37.533,37.533,0,0,1-8.9,2.3,59.975,59.975,0,0,1-10.4,1.1c-.221,0-.444.007-.663.007A31.317,31.317,0,0,1-1107.3-696.1a15.866,15.866,0,0,1-7.3-6,22.08,22.08,0,0,1-3.1-8.9h31.7c1.34,0,2.628.106,3.873.209,1.188.1,2.31.191,3.427.191a47.311,47.311,0,0,0,5.8-.3c.579-.036,1.1-.073,1.518-.1.81-.057,1.4-.1,1.782-.1a1.487,1.487,0,0,0,1.4-1.3c.044-.4.09-.908.142-1.5l0-.019c.065-.73.146-1.638.256-2.685.1-1.92.2-4,.2-6.4a39.383,39.383,0,0,0-1.9-12.2,36.651,36.651,0,0,0-6-11.4,27.368,27.368,0,0,0-10.5-8A35.839,35.839,0,0,0-1100.779-757.707ZM-1208.6-781.8h0a1.052,1.052,0,0,0-.625.4.875.875,0,0,0-.175.7,34.857,34.857,0,0,1-.6,6.5l-.038.114c-.375,1.128-.672,2.019-.962,2.986l-32.2,92.3a1.68,1.68,0,0,0,.084,1.437,1.211,1.211,0,0,0,1.016.363h18.8a1.6,1.6,0,0,0,.194.012,1.76,1.76,0,0,0,1.706-1.411l7.6-23.6h37.2v-.5l8.2,24a1.524,1.524,0,0,0,1.42,1.112,1.271,1.271,0,0,0,.18-.013h20.9a1.126,1.126,0,0,0,.951-.334A1.463,1.463,0,0,0-1144.9-679l-36.5-102c-.1-.494-.6-.8-1.3-.8h-25.9Zm26,59.9H-1208c1.434-4.013,3.079-8.814,4.4-14,1-3.116,1.964-6.259,2.9-9.3l.017-.055c.553-1.8,1.125-3.656,1.684-5.446a121.973,121.973,0,0,0,3.4-12.9h.2c.391,1.341.779,2.731,1.189,4.2l.008.029c.321,1.151.653,2.341,1,3.569.7,2.528,1.53,5.273,2.7,8.9.5,1.549.982,3.1,1.449,4.6l0,.013c.466,1.5.948,3.043,1.447,4.591,1.009,3.362,1.892,6.175,2.7,8.6.911,2.631,1.706,5.12,2.3,7.2Zm86-3.7h-21.1a20.594,20.594,0,0,1,2.2-7.2,14.078,14.078,0,0,1,12.523-7.62c.25,0,.511.007.777.021.146-.005.3-.008.444-.008a13.034,13.034,0,0,1,7.765,2.557,13.224,13.224,0,0,1,4.791,6.651,11.513,11.513,0,0,1,.6,3.7v1a4.792,4.792,0,0,1-2.3.8C-1092.1-725.6-1093.987-725.6-1096.6-725.6Z"
    transform="translate(1273 842)"
  />
</svg>
