<svg xmlns="http://www.w3.org/2000/svg" viewBox="0 0 239.999 234">
  <path
    d="M-1307.5-365h-155a42.31,42.31,0,0,1-16.555-3.336,42.294,42.294,0,0,1-13.508-9.1,42.293,42.293,0,0,1-9.1-13.508A42.309,42.309,0,0,1-1505-407.5v-149a42.31,42.31,0,0,1,3.336-16.555,42.3,42.3,0,0,1,9.1-13.508,42.3,42.3,0,0,1,13.508-9.1A42.307,42.307,0,0,1-1462.5-599h155a42.307,42.307,0,0,1,16.555,3.336,42.3,42.3,0,0,1,13.508,9.1,42.3,42.3,0,0,1,9.1,13.508A42.311,42.311,0,0,1-1265-556.5v149a42.31,42.31,0,0,1-3.336,16.555,42.3,42.3,0,0,1-9.1,13.508,42.3,42.3,0,0,1-13.508,9.1A42.31,42.31,0,0,1-1307.5-365Zm-37.4-148.6c-.911,0-1.3.419-1.3,1.4v77a1.4,1.4,0,0,0,1.5,1.6h19.6c.9,0,1.3-.493,1.3-1.6v-77c0-.929-.437-1.4-1.3-1.4Zm-81.3,54.6h37.2l8.2,23.8a1.525,1.525,0,0,0,1.42,1.113,1.205,1.205,0,0,0,.18-.013h20.9a1.125,1.125,0,0,0,.95-.334,1.463,1.463,0,0,0,.05-1.267l-36.5-103c-.106-.53-.543-.8-1.3-.8H-1421a.989.989,0,0,0-.8,1.1,34.853,34.853,0,0,1-.6,6.5c-.281.842-.509,1.623-.729,2.378l0,.008c-.092.317-.18.617-.269.914l-32.2,92.7a1.678,1.678,0,0,0,.083,1.436,1.212,1.212,0,0,0,1.017.364h18.8a1.779,1.779,0,0,0,.195.011,1.758,1.758,0,0,0,1.7-1.411l7.6-23.5Zm91.2-63h0c.222.013.453.02.686.02a11.676,11.676,0,0,0,8.414-3.52,12.632,12.632,0,0,0,3.5-9.2,12.71,12.71,0,0,0-3.3-8.9,12.047,12.047,0,0,0-9.1-3.5,12.772,12.772,0,0,0-8.9,3.5,11.689,11.689,0,0,0-3.6,8.9,12.938,12.938,0,0,0,3.4,9.2,12.33,12.33,0,0,0,8.545,3.505C-1335.238-521.995-1335.118-522-1335-522Zm-60,42.7h-25.4c1.6-4.47,3.077-9.18,4.4-14,.983-3.073,1.937-6.174,2.86-9.172l.011-.037,0-.014c.566-1.84,1.152-3.744,1.725-5.577A122.177,122.177,0,0,0-1408-521h.2c.392,1.342.776,2.723,1.184,4.186l.008.028c.322,1.157.656,2.353,1.008,3.587.7,2.529,1.53,5.273,2.7,8.9.5,1.544.979,3.089,1.445,4.583l.008.025c.466,1.5.948,3.043,1.447,4.591,1.028,3.423,1.886,6.156,2.7,8.6.909,2.626,1.7,5.115,2.3,7.2Z"
    transform="translate(1505 599)"
  />
</svg>
