<svg xmlns="http://www.w3.org/2000/svg" viewBox="0 0 239.999 234">
  <path
    d="M-642.5-189h-155a42.309,42.309,0,0,1-16.555-3.336,42.3,42.3,0,0,1-13.508-9.1,42.3,42.3,0,0,1-9.1-13.508A42.308,42.308,0,0,1-840-231.5v-149a42.308,42.308,0,0,1,3.336-16.555,42.3,42.3,0,0,1,9.1-13.508,42.3,42.3,0,0,1,13.508-9.1A42.309,42.309,0,0,1-797.5-423h155a42.31,42.31,0,0,1,16.555,3.336,42.3,42.3,0,0,1,13.508,9.1,42.294,42.294,0,0,1,9.1,13.508A42.309,42.309,0,0,1-600-380.5v149a42.308,42.308,0,0,1-3.336,16.555,42.3,42.3,0,0,1-9.1,13.508,42.3,42.3,0,0,1-13.508,9.1A42.31,42.31,0,0,1-642.5-189Zm-56.456-91.309a.6.6,0,0,0-.344.109,1.089,1.089,0,0,0-.4.9v17.4a1.962,1.962,0,0,0,1.1,1.9,40.509,40.509,0,0,0,10.2,3.2,68.584,68.584,0,0,0,13.6,1.3c7.055,0,13.145-1.076,18.1-3.2a24.969,24.969,0,0,0,11.2-8.9,23.308,23.308,0,0,0,3.9-13.3,21.464,21.464,0,0,0-2.3-10.3,23.178,23.178,0,0,0-7.9-8.3,72.238,72.238,0,0,0-15.4-7.3c-2.553-1.064-4.942-2.174-7.1-3.3a11.172,11.172,0,0,1-3.4-2.7,4.435,4.435,0,0,1-1-2.6,5.326,5.326,0,0,1,.8-2.7,5.151,5.151,0,0,1,3.1-2,20.908,20.908,0,0,1,5.216-.719c.264,0,.528.007.783.019a52.688,52.688,0,0,1,11.2,1.3,35.158,35.158,0,0,1,9.6,3.4,1.544,1.544,0,0,0,.713.15,5.154,5.154,0,0,0,1.087-.15,1.233,1.233,0,0,0,.5-1v-16.3a5.049,5.049,0,0,0-.2-1.2,1.752,1.752,0,0,0-1-.9,35.112,35.112,0,0,0-8.6-2.3,85.888,85.888,0,0,0-12.4-.9c-7.3,0-13.088,1.145-17.7,3.5a24.486,24.486,0,0,0-10.5,9.2,23.4,23.4,0,0,0-3.4,12.1,21.538,21.538,0,0,0,2.3,10.2,26.058,26.058,0,0,0,7.6,8.5,60.8,60.8,0,0,0,14.2,7.2c5.383,2.087,8.314,3.493,9.8,4.7,1.615,1.313,2.4,2.621,2.4,4a4.619,4.619,0,0,1-2.7,4.2c-1.858.929-4.651,1.4-8.3,1.4a46.391,46.391,0,0,1-11.8-1.5,42.644,42.644,0,0,1-12.4-4.9A1.018,1.018,0,0,0-698.956-280.309ZM-754-363.5c-2.95,0-6,0-9.1.1-1.5.048-2.948.073-4.349.1-1.521.026-2.955.051-4.35.1-1.319.049-2.588.074-3.816.1-1.316.026-2.555.051-3.785.1-2.3.1-3.9.1-5.6.1-.673,0-1,.36-1,1.1v102.9c0,.887.381,1.3,1.2,1.3h19.4a1.317,1.317,0,0,0,.85-.475,1.2,1.2,0,0,0,.25-.925v-32.1h.042c1.9,0,3.265,0,4.258.1s2.591.1,5,.1c9.042,0,16.191-1.08,22.5-3.4a34.22,34.22,0,0,0,16.1-12.2c3.982-5.573,6-12.739,6-21.3a38.053,38.053,0,0,0-2.3-13,31.992,31.992,0,0,0-7.3-11.4,35.855,35.855,0,0,0-13.4-8.2C-738.962-362.486-745.7-363.5-754-363.5Zm-1,53.7h-5.3c-1.114,0-2.321-.087-3.6-.178l-.3-.022v-33.6a18.355,18.355,0,0,1,2.5-.141c.52,0,1.059.014,1.6.041,1.9-.1,4.17-.1,6.8-.1.29-.007.582-.011.867-.011A28.982,28.982,0,0,1-741.5-341.8a14.5,14.5,0,0,1,7,5.7,16.4,16.4,0,0,1,2.3,8.9c0,4.448-1.014,7.817-3.1,10.3a17.2,17.2,0,0,1-8.2,5.3A37.224,37.224,0,0,1-755-309.8Z"
    transform="translate(840 423)"
  />
</svg>
