<svg xmlns="http://www.w3.org/2000/svg" viewBox="0 0 240 234">
  <path
    d="M-973.5-361h-155a42.31,42.31,0,0,1-16.555-3.336,42.3,42.3,0,0,1-13.508-9.1,42.294,42.294,0,0,1-9.1-13.508A42.307,42.307,0,0,1-1171-403.5v-149a42.307,42.307,0,0,1,3.336-16.555,42.293,42.293,0,0,1,9.1-13.508,42.3,42.3,0,0,1,13.508-9.1A42.31,42.31,0,0,1-1128.5-595h155a42.31,42.31,0,0,1,16.555,3.336,42.3,42.3,0,0,1,13.508,9.1,42.3,42.3,0,0,1,9.1,13.508A42.308,42.308,0,0,1-931-552.5v149a42.308,42.308,0,0,1-3.336,16.555,42.294,42.294,0,0,1-9.1,13.508,42.3,42.3,0,0,1-13.508,9.1A42.31,42.31,0,0,1-973.5-361ZM-994-511.3c-10.02,0-18.3,1.9-25.3,5.8a41.44,41.44,0,0,0-15.9,15.5,41.061,41.061,0,0,0-5.5,21.1c0,9.113,1.85,16.784,5.5,22.8a34.756,34.756,0,0,0,15.1,13.6,49.871,49.871,0,0,0,20.807,4.5c.211,0,.438,0,.693,0a87.763,87.763,0,0,0,15.4-1.4,76.337,76.337,0,0,0,16.3-4.8,1.625,1.625,0,0,0,1-1.6q-.023-.388-.046-.8c-.087-1.512-.185-3.224-.354-5l-.028-.6c-.089-1.936-.172-3.763-.172-5.4V-543a.928.928,0,0,0-.845-.716.793.793,0,0,0-.155.016h-20.3c-.673,0-1,.36-1,1.1V-511c-.555-.046-1.059-.071-1.546-.094-.551-.027-1.07-.052-1.554-.106A17.815,17.815,0,0,0-994-511.3ZM-1134.2-535a1.172,1.172,0,0,0-1,.4c-.191.191-.113.583.2,1l30.3,51.3-31.1,51a1.385,1.385,0,0,0-.2,1.1c0,.282.1.339.243.339a1.523,1.523,0,0,0,.184-.017,2.089,2.089,0,0,1,.273-.023h22c1.054,0,1.892-.081,2.3-1.1,1.534-2.734,3.093-5.6,4.6-8.381l.015-.028c.746-1.374,1.518-2.794,2.283-4.192,2.232-4.26,4.645-8.771,6.774-12.751l.026-.049.034-.063c2.25-4.207,4.576-8.557,6.666-12.836h.2c2.378,4.361,4.8,8.693,7.134,12.882l.066.118c1.963,3.517,4.509,8.128,6.8,12.6,1.049,2.1,2.141,4.206,3.2,6.244l0,.006.016.03c1.052,2.031,2.14,4.13,3.184,6.22.715,1.021,1.86,1.1,3.4,1.1h22.9a1.61,1.61,0,0,1,.272-.022,2.936,2.936,0,0,1,.3.018l.03,0c.079.008.148.015.209.015a.254.254,0,0,0,.291-.215,1.711,1.711,0,0,0-.2-1.2l-32-52.5,30-49.5c.207-.207.4-.6.3-.7a.906.906,0,0,0-.908-.719.99.99,0,0,0-.193.019h-21.1a1.961,1.961,0,0,0-.382-.039,2.01,2.01,0,0,0-.918.239,1.685,1.685,0,0,0-.6,1c-.9,1.674-1.816,3.417-2.7,5.1-1.3,2.464-2.637,5.011-4,7.5l-.092.168c-2.23,4.073-4.536,8.285-6.708,12.432-2.666,5.089-4.671,9.067-6.5,12.9h-.2c-2.206-4.517-4.4-8.671-6.7-12.7-2.04-3.427-3.907-6.783-5.884-10.336l-.005-.01q-.652-1.173-1.311-2.354c-2.783-5.2-4.756-9.18-6.4-12.9a2.807,2.807,0,0,0-1-.9,5.755,5.755,0,0,0-1.4-.2Zm137.6,87.7a26.2,26.2,0,0,1-8.3-1.3,17.164,17.164,0,0,1-6.8-4,19.542,19.542,0,0,1-4.5-7.1,27.722,27.722,0,0,1-1.7-10.3c0-5.243,1.11-9.516,3.3-12.7a22.293,22.293,0,0,1,8.5-7.4,24.454,24.454,0,0,1,11.3-2.6c1.1,0,2.217.1,3.3.2a25.735,25.735,0,0,1,2.7.5v44a9,9,0,0,1-2.947.526c-.213,0-.433-.009-.653-.025C-993.77-447.395-995.122-447.3-996.6-447.3Z"
    transform="translate(1171 595)"
  />
</svg>
