<svg width="138" height="165" viewBox="0 0 138 165" fill="none" xmlns="http://www.w3.org/2000/svg">
<path d="M40.3842 7.03645C6.1792 22.8893 -8.71672 63.5197 7.13609 97.7246C15.462 115.689 30.5681 128.307 48.0728 133.971L61.7545 164.443L81.1123 136.293C86.7332 135.342 92.3805 133.496 97.8243 130.973C132.029 115.12 146.925 74.4894 131.072 40.2845C115.22 6.07955 74.5891 -8.81636 40.3842 7.03645Z" fill="#393737"/>
<path d="M82.4 109.1L79.9 110.5L59.9 98.9L62.4 97.5L82.4 109.1Z" fill="#323232"/>
<path d="M82.4 109.1V110.9L79.9 112.3V110.5L82.4 109.1Z" fill="#252525"/>
<path d="M79.8 110.5V112.3L59.8 100.7V98.9L79.8 110.5Z" fill="#181818"/>
<path d="M95.3 101.7L92.8 103.1L72.8 91.5L75.3 90.1L95.3 101.7Z" fill="#323232"/>
<path d="M95.3 101.7V103.5L92.8 104.9V103.1L95.3 101.7Z" fill="#252525"/>
<path d="M92.8 103.1V104.9L72.8 93.3V91.5L92.8 103.1Z" fill="#181818"/>
<path d="M67.4 39.2C68.2 36.8 69.6 37.5 69.6 37.5C73.2 37.5 74.9 42.7 76.8 46.1V46.3C76.8 47.4 76.5 50.5 76.6 53.5C74.1 51.8 71.8 49.7 70 47.3C68.7 45.3 66.6 41.6 67.4 39.2Z" fill="#FFD4AF"/>
<path d="M64.1 80.6L66.3 81.9L69 80.3L66.8 79L64.1 80.6Z" fill="#323232"/>
<path d="M64.1 80.6V82.9L66.3 84.2V81.9L64.1 80.6Z" fill="#181818"/>
<path d="M66.3 81.9001V84.2001L69 82.6001V80.3L66.3 81.9001Z" fill="#252525"/>
<path d="M47.4 91.1001L49.2 92.2001L66 82.4001L64.2 81.3L47.4 91.1001Z" fill="#BFBFBF"/>
<path d="M47.4 91.1V92.3L49.2 93.4V92.2L47.4 91.1Z" fill="#B4B3B2"/>
<path d="M49.2 92.1V93.3L66 83.6V82.4L49.2 92.1Z" fill="#6F7070"/>
<path d="M55.1 75.3L56.9 76.4L58.3 75.6L56.5 74.5L55.1 75.3Z" fill="#BFBFBF"/>
<path d="M55.1 75.3V86.6001L56.9 87.7001V76.4001L55.1 75.3Z" fill="#DEDCDB"/>
<path d="M56.9 76.4V87.7L58.3 86.9V75.6L56.9 76.4Z" fill="#6F7070"/>
<path d="M44.7 91.8L46.9 93.1L49.6 91.5L47.4 90.2L44.7 91.8Z" fill="#323232"/>
<path d="M44.7 91.8V94.1001L46.9 95.4001V93.1001L44.7 91.8Z" fill="#181818"/>
<path d="M47 93.1V95.4L49.7 93.8V91.5L47 93.1Z" fill="#252525"/>
<path d="M44.9 71.4V72.1C44.9 72.2 44.9 72.2 45 72.2V72.3L45.1 72.4L45.2 72.5C45.2 72.5 45.3 72.5 45.3 72.6C45.3 72.7 45.4 72.6 45.4 72.7C45.4 72.8 45.5 72.8 45.5 72.8L56.2 79V80.7L45.5 74.5C45.4 74.4 45.2 74.3 45.1 74.2L44.9 74C44.9 73.9 44.8 73.9 44.8 73.8C44.8 73.7 44.7 73.7 44.7 73.6V73.2L44.9 71.4Z" fill="#181818"/>
<path d="M68.5 74.3C68.6 74.3 68.6 74.2001 68.7 74.2001L68.8 74.1001L68.9 74.0001L69 73.9001L69.1 73.8L69.2 73.7001L69.3 73.6001V73.5001C69.3 73.5001 69.3 73.4001 69.4 73.4001C69.5 73.4001 69.4 73.3 69.4 73.3V72.8V74.5001C69.4 75.0001 69 75.5001 68.5 75.7001L60.7 80.2001V78.5001L68.5 74.3Z" fill="#14181A"/>
<path d="M69.4 73.2V73.7C69.4 73.7 69.4 73.8 69.3 73.8C69.2 73.8 69.3 73.8 69.3 73.9C69.3 74 69.3 74 69.2 74C69.1 74 69.2 74 69.1 74.1C69 74.2 69 74 69 74L68.9 74.1L68.8 74.2L68.7 74.3C68.6 74.3 68.6 74.4 68.5 74.4L60.7 78.9C60.6 79 60.4 79.1 60.2 79.1H60.1C60 79.2 59.8 79.2 59.7 79.2H59.6C59.4 79.2 59.3 79.3 59.1 79.3H57.8C57.7 79.3 57.6 79.3 57.4 79.2C57.3 79.2 57.2 79.2 57.1 79.1C57 79 56.9 79 56.8 79H56.7C56.6 78.9 56.4 78.9 56.3 78.8L45.6 72.6L45.5 72.5C45.5 72.5 45.4 72.5 45.4 72.4C45.4 72.3 45.3 72.4 45.3 72.3C45.3 72.2 45.2 72.3 45.2 72.2L45.1 72.1V72C45.1 71.9 45 71.9 45 71.8V71.3C45 70.7 45.3 70.2 45.9 70L53.7 65.5C55 64.8 56.6 64.8 57.9 65.5L68.6 71.7C69 72.1 69.4 72.6 69.4 73.2Z" fill="#323232"/>
<path d="M56.9 79.0001C57.1 79.0001 57.2 79.1001 57.3 79.1001C57.5 79.2001 57.7 79.2001 58 79.2001H59.3C59.5 79.2001 59.6 79.2001 59.8 79.1001H59.9C60 79.1001 60.2 79.0001 60.3 79.0001H60.4C60.6 78.9001 60.7 78.9 60.9 78.8V80.5001C60.8 80.6001 60.6 80.6001 60.5 80.7001C60.3 80.8001 60.1 80.9001 59.8 80.9001C59.5 81.0001 59.2 81.0001 58.9 81.0001H58.3C58.2 81.0001 58 81.0001 57.9 80.9001C57.7 80.9001 57.5 80.8 57.3 80.8C57.1 80.7 56.9 80.6001 56.6 80.5001V78.8C56.7 78.9 56.8 79.0001 56.9 79.0001Z" fill="#191F22"/>
<path d="M70.7 69.7C70.7 69.9 70.6 70.1 70.7 70.3C70.9 71.2 75.3 72 76.1 72.2C76.5 72.3 76.4 72.3 76.2 72.8C75.9 73.7 73.9 73.7 77.9 81.9C78.2 82.5 78.9 84.1 79.7 86.6C80 87.3 80.2 88.1 80.6 89C81.3 88.5 82 88 82.8 87.6C82.3 80.6 83.4 74 80.7 67C80.5 66.6 80.1 66.3 79.7 66.1C79 65.7 73.2 64.4 72.4 65C71.3 65.7 71 68.5 70.7 69.7Z" fill="#FFD4AF"/>
<path d="M77.9 81.9C78.2 82.5 78.9 84.1 79.7 86.6C80 86.3 80.2 85.8 80.1 85.3C79.7 84.1 79.2 83 78.6 81.9C77.8 79.8 77.3 77.6 77 75.4C76.9 74.3 77.5 73.2 77.6 72.1C77.1 72.4 76.7 72.6 76.2 72.9C76 73.8 73.9 73.8 77.9 81.9Z" fill="#FFB87C"/>
<path d="M55 77.1001C55 77.1001 54.8 79.8001 56.5 79.2001C58.2 78.6001 62.9 75.2001 62.9 75.2001L63.2 73.0001L60.3 70.8L57 72.8L55.5 75.0001L55 77.1001Z" fill="#333333"/>
<path d="M55.5 76.8C53.7 81.7 53.7 95.6 53.3 96.8L55.6 97.3C55.8 97.4 56 97.4 56.2 97.3C56.4 97.2 56.5 97 56.5 96.8C59.6 87.8 61.3 83 63.1 76.3C63.6 74.3 63.1 71.8 60.4 71.7C59.1 71.8 58 72.4 57.2 73.4C57 73.6 56.9 73.8 56.8 74C56.3 74.9 55.8 75.9 55.5 76.8Z" fill="#FFD4AF"/>
<path d="M58 68.7C60.1 68.9 61.9 70 63.2 71.6C63.1 71.3 62.9 71 62.8 70.7C62.6 70.2 64 70.2 64.1 70.1C64.4 70.2 68.1 70.9 70.6 71.5C70.6 71.1 70.7 70.7 70.8 70.3C70.1 70.1 69.1 70.4 68.3 70.3C66.7 70.1 65.2 69.6 63.9 68.7C64.2 69.2 64 69.9 63.4 70.2C63.3 70.2 63.2 70.3 63.1 70.3H62.8C62.6 70.2 62.5 70.1 62.3 70C61.7 69.4 61.1 68.9 60.3 68.7C59.7 68.3 58.8 68.3 58 68.7Z" fill="#FFBC0B"/>
<path d="M55.5 76.8C53.7 81.7 53.7 95.6 53.3 96.8L55.6 97.3C55.8 97.4 56 97.4 56.2 97.3C56.7 96.2 56.7 95 55.1 94.5C54.7 94.3 54.2 94.5 54 94.8C54 89.5 54.4 86.6 55.4 80.7C55.6 79 55.9 77.3 56.3 75.6C56.5 75.1 56.6 74.6 56.8 74.1C56.3 74.9 55.8 75.9 55.5 76.8Z" fill="#FFB87C"/>
<path d="M89.5 92.5001C89.5 93.8001 88.4 94.9001 87.1 95.0001C84.8 95.3001 84.4 94.3 83.7 93.7C83.5 93.4 83.3 93.2001 83.1 92.9001C81.7 90.7001 78.6 88.8 78.5 87.7C78.3 86.2 82 88.9001 82.5 87.5001C82.7 87.1001 83.1 85.8 83.5 85.8C84 85.5 89.6 91.3001 89.5 92.5001Z" fill="#DBF1FD"/>
<path d="M84.2 85.8001C85.3 86.8001 86.5 88.1001 87.9 89.3001C88.9 90.1001 90.4 92.1001 88.1 93.7001C86.2 95.0001 83.2 92.4001 82.3 90.8001C82 90.2001 79.3 88.3001 79.1 87.6001C78.8 86.9001 79.4 85.7001 79.1 85.1001C79 85.0001 78.9 84.8001 78.9 84.6001C78.9 84.4001 79.1 84.2001 79.3 84.0001L80.3 83.1001C81.9 81.9001 83.1 84.9001 84.2 85.8001Z" fill="#F8FCFF"/>
<path d="M83 82.8L82.8 82.7C82.4 82.8 81.1 82.6 80.8 82.8C80.3 83.1 80 83.6 79.7 84.1V84.2C79.7 84.3 79.7 84.3 79.8 84.4C80.3 85 80.7 85.6 81.1 86.2C81.3 86.6 81.4 86.9 81.5 87.3C82 88.6 83.5 90.5 85 89.5C86.2 88.7 85.6 87.4 84.8 86.5L84.2 85.9L83.8 85.5L82.9 84.6C82.5 84.1 83.3 83.3 83 82.8Z" fill="#DBF1FD"/>
<path d="M82.9 89.9C83.4 88.6 84.5 87.8 85.7 87.6C85.8 87.6 85.8 87.5 85.8 87.5C85.8 87.4 85.7 87.4 85.7 87.4C84.4 87.6 83.2 88.5 82.9 89.9C82.8 89.9 82.8 89.8 82.9 89.9ZM82.3 89.3C82.5 88.7 82.8 88.3 83 87.9C83.6 87.3 84.3 87 85.1 86.8C85.2 86.8 85.2 86.7 85.2 86.7C85.2 86.6 85.1 86.6 85.1 86.6C84.3 86.7 83.5 87.1 82.9 87.7C82.6 88.1 82.4 88.6 82.2 89.1C82.2 89.2 82.2 89.3 82.3 89.3ZM81.6 88.4C81.7 88.4 81.7 88.4 81.6 88.4C82.2 87.1 83.3 86.3 84.6 86.2C84.7 86.2 84.7 86.1 84.7 86.1C84.7 86 84.6 86 84.6 86C83.2 86.1 82 87 81.6 88.4C81.5 88.4 81.5 88.3 81.6 88.4ZM81.2 87.4C81.3 87.4 81.3 87.4 81.2 87.4C81.5 86.7 81.9 86.2 82.5 85.9C82.9 85.6 83.4 85.4 83.9 85.4C84 85.4 84 85.4 84 85.3C84 85.2 84 85.2 83.9 85.2C83.3 85.2 82.7 85.3 82.3 85.7C81.7 86 81.3 86.6 81.1 87.2C81.1 87.3 81.1 87.4 81.2 87.4ZM80.7 86.5C81.3 85.6 82.1 85 83.1 84.7C83.2 84.7 83.2 84.7 83.2 84.6C83.2 84.5 83.2 84.5 83.1 84.5C82 84.7 81.1 85.4 80.6 86.3C80.6 86.4 80.6 86.4 80.7 86.5C80.6 86.5 80.6 86.5 80.7 86.5Z" fill="#273339"/>
<path d="M61.6 104.7C61.2 106 60 106.7 58.7 106.5C56.4 106.2 56.2 105.2 55.8 104.4C55.7 104.1 55.5 103.8 55.4 103.5C54.6 101 52.1 98.4 52.3 97.3C52.5 95.8 55.4 99.3 56.3 98.1C56.5 97.7 57.3 96.6 57.8 96.7C58 96.6 61.9 103.5 61.6 104.7Z" fill="#DBF1FD"/>
<path d="M58.1 96.9C58.9 98.1 59.7 99.7 60.8 101.2C61.5 102.3 62.5 104.5 59.8 105.5C57.6 106.3 55.4 103 54.9 101.3C54.7 100.6 52.7 98.1 52.6 97.4C52.5 96.6 53.4 95.6 53.2 95C53.1 94.8 53.1 94.7 53.2 94.5C53.3 94.3 53.5 94.1 53.7 94.1L54.9 93.5C56.9 92.5 57.3 95.7 58.1 96.9Z" fill="#F8FCFF"/>
<path d="M57.8 93.7C57.8 93.6 57.7 93.5 57.6 93.5H57.5C57.1 93.5 55.9 93 55.5 93.1C55 93.3 54.5 93.6 54.1 94L54 94.1V94.3C54.3 95 54.6 95.7 54.8 96.4C54.9 96.8 54.9 97.2 54.9 97.6C55.1 98.9 56 101.2 57.8 100.6C59.1 100.2 58.9 98.7 58.4 97.6C58.3 97.3 58.2 97.1 58 96.9L57.7 96.4C57.4 95.9 57.4 95.8 57.1 95.3C56.9 94.8 57.9 94.2 57.8 93.7Z" fill="#DBF1FD"/>
<path d="M55.9 100.6C56.7 99.5 58 98.9 59.2 99.1C59.3 99.1 59.3 99.1 59.3 99C59.3 98.9 59.3 98.9 59.2 98.9C57.9 98.7 56.5 99.3 55.8 100.4C55.8 100.4 55.8 100.5 55.9 100.6C55.8 100.5 55.8 100.5 55.9 100.6Z" fill="#273339"/>
<path d="M55.5 99.9C55.8 99.4 56.2 99.1 56.5 98.8C57.2 98.4 58 98.2 58.8 98.3C58.9 98.3 58.9 98.3 58.9 98.2C58.9 98.1 58.8 98.1 58.8 98.1C58 98 57.1 98.2 56.4 98.6C56 98.9 55.7 99.3 55.4 99.8C55.3 99.7 55.3 99.8 55.5 99.9C55.4 99.8 55.4 99.8 55.5 99.9C55.4 99.9 55.4 99.9 55.5 99.9ZM55 98.8C55.9 97.7 57.2 97.2 58.5 97.4C58.6 97.4 58.6 97.4 58.6 97.3C58.6 97.2 58.6 97.2 58.5 97.2C57.1 97 55.7 97.5 55 98.8C54.9 98.7 54.9 98.6 55 98.8C54.9 98.7 54.9 98.7 55 98.8ZM54.8 97.7C54.9 97.7 54.9 97.6 54.8 97.7C55.3 97.1 55.8 96.7 56.4 96.6C56.9 96.4 57.4 96.3 57.9 96.5C58 96.5 58 96.5 58 96.4V96.3C57.4 96.1 56.8 96.1 56.3 96.4C55.6 96.6 55.1 97 54.7 97.6L54.8 97.7ZM54.6 96.7C55.4 96 56.4 95.6 57.4 95.6C57.5 95.6 57.5 95.6 57.5 95.5C57.5 95.4 57.5 95.4 57.4 95.4C56.3 95.4 55.3 95.8 54.5 96.5C54.5 96.5 54.5 96.6 54.6 96.7Z" fill="#273339"/>
<path d="M68.2 27.9C68.3 27.4 68.3 26.9 68.1 26.5C67.9 25.9 67.5 25.4 67 25.2C66.8 25.1 65.1 24.6 65.1 24.6L64.8 25.2C64.4 24.6 63.8 24.2 63.1 24.3C62.4 24.3 61.8 24.5 61.2 24.8L59.5 25.5C59.2 25.6 58.9 25.8 58.8 26C58.6 26.3 58.7 26.7 59 26.8C57.8 26.8 56.8 27.6 56.4 28.7C56.2 29.7 56.2 30.7 56.5 31.6C57.1 34.1 58.2 36.4 59.8 38.4C61.2 36.5 62.7 34.7 64.3 33L66.7 30.6C66.9 30.4 67.1 30.1 67.3 29.8C67.2 28.4 67.6 27.9 68.2 27.9Z" fill="#FF8116"/>
<path d="M58.8 43.7C61 44.3 65 45.3 66.1 43.6C66.2 43.5 66.1 43 65.9 42.3C65.4 40.9 64.5 39 64.6 38.8C64.1 38.6 63.6 38.4 63.1 38.3L61.6 37.7C61.2 37.5 60.8 37.4 60.3 37.3C60 37.3 59.5 35.1 59.1 34.4C59 34.3 59 34.2 58.9 34.2V36.8C58.9 39.4 58.9 42.6 58.8 43.7Z" fill="#FFD4AF"/>
<path d="M59 35.3C58.9 35.9 58.9 36.4 58.9 37C59.3 37.9 59.8 38.8 60.5 39.5C61.2 40.5 62.1 41.3 63.1 41.9C64 42.4 65 42.5 65.9 42.4C65.4 41 64.5 39.1 64.6 38.9C64.1 38.7 63.6 38.5 63.1 38.4L61.6 37.8C61.2 37.6 60.8 37.5 60.3 37.4C60 37.4 59.5 35.2 59.1 34.5C59 34.5 59 34.6 58.9 34.6C58.8 34.6 58.8 34.7 58.7 34.8C58.7 35 59 35.1 59 35.3Z" fill="#FFB87C"/>
<path d="M55.5 59.3C55.7 60.4 55.9 61.6 55.9 62.7C55.9 64.7 55.8 66.8 55.6 68.8C57.1 69.3 58.7 69.6 60.2 69.7C61 69.8 61.8 69.8 62.5 69.8C65.4 69.8 68.5 69.3 70.1 68.3C71 67.8 71.8 67.2 72.4 66.3C71.2 62.8 72.7 56.6 72 51.5C71.4 47.3 70.9 41.6 70 39.3C69.6 37.9 68.2 37.1 66.8 37.3H66.6C66.6 37.3 66.3 37.6 65.9 37.9C65.3 38.3 64.6 38.9 64.6 38.9C65.2 41 66.3 42.8 64.4 43.1C62 43.6 59.6 42.4 58.7 40.2C58.7 40.2 57.7 40.7 56.5 41.4C56.2 41.6 55.9 41.7 55.6 41.9C54.8 42.4 54 42.8 53.4 43.2C52.1 43.9 51.3 45.2 51.4 46.7V46.8C51.4 49.5 54.4 54.1 55.5 59.3Z" fill="#0B8DD8"/>
<path d="M67.3 33.3V34.1L67.2 35.6C67.2 37.2 66.9 38.8 66.2 40.2C65.8 40.4 65.3 40.5 64.9 40.4C63.9 40.2 63 39.8 62.2 39.3C61.4 38.9 60.6 38.4 59.8 37.8C59.5 37.6 59.3 37.3 59.2 36.9C59.1 36.5 59.3 36.1 58.8 35.9C58.6 35.8 58.5 35.8 58.3 35.8C57.8 35.6 57.5 34.8 57.4 34.1C57.3 33.6 57.3 33 57.5 32.5C57.8 32 58.6 32.4 58.8 32.8C59 33.1 59.1 33.3 59.2 33.6C59.2 33.4 59.2 33.1 59.1 32.9C59 32.6 59 32.2 59 31.9V31.8C59.1 31.1 59.5 30.4 60.1 30C60.7 29.6 61.3 29.2 62 29.1C62.5 28.9 63.1 28.8 63.7 28.8C64.4 28.9 65.1 29 65.8 29.3C66.2 29.4 66.5 29.6 66.8 29.9C66.9 30.1 67 30.3 67 30.6L67.3 33.3Z" fill="#FFD4AF"/>
<path d="M90.5 99.4L92 98.5L76.6 89.6L75.1 90.5L90.5 99.4Z" fill="#BFBFBF"/>
<path d="M75.1 90.6L76.6 89.7L76.7 59.1L75.2 60L75.1 90.6Z" fill="#6F7070"/>
<path d="M92.6 102.2L73.9 53.9L73.8 91.3L92.6 102.2ZM75.1 90.6L75.2 60L90.5 99.4L75.1 90.6Z" fill="#DEDCDB"/>
<path d="M92.6 102.2L94.1 101.3L75.4 53.1L73.9 54L92.6 102.2Z" fill="#8C8C8C"/>
<path d="M61.8 96.7V98.3L63.2 99.1V97.5L61.8 96.7Z" fill="#DEDCDB"/>
<path d="M63.1 99L75.1 92.1V90.5L63.1 97.4V99Z" fill="#6F7070"/>
<path d="M63.1 97.5001L75.1 90.6001L73.7 89.8L61.7 96.7001L63.1 97.5001Z" fill="#BFBFBF"/>
<path d="M78.7 105.4V107.1L80.2 108V106.3L78.7 105.4Z" fill="#DEDCDB"/>
<path d="M80.2 108L91.4 101.5V99.8L80.2 106.3V108Z" fill="#6F7070"/>
<path d="M80.2 106.3L91.4 99.8L89.9 98.9L78.7 105.4L80.2 106.3ZM77.5 106.9L79 106L63.6 97.1L62.2 98L77.5 106.9Z" fill="#BFBFBF"/>
<path d="M62.2 98L63.7 97.1L63.8 66.5L62.3 67.4L62.2 98Z" fill="#6F7070"/>
<path d="M79.7 109.7L61 61.4L60.9 98.8L79.7 109.7ZM62.2 98L62.3 67.4L77.6 106.8L62.2 98Z" fill="#DEDCDB"/>
<path d="M79.7 109.7L81.2 108.8L62.5 60.5L61 61.4L79.7 109.7Z" fill="#8C8C8C"/>
<path d="M49 59.3L77.4 42.8H78.4C78.5 42.8 78.6 42.8 78.7 42.9C78.8 42.9 79 43 79.1 43C79.3 43.1 79.4 43.2 79.6 43.2L80.8 44.1L81.2 44.5C81.3 44.6 81.4 44.7 81.5 44.9C81.6 45 81.7 45.1 81.7 45.2C81.7 45.3 81.8 45.4 81.9 45.5C82 45.6 82 45.7 82.1 45.8C82.2 45.9 82.2 46 82.3 46.1C82.4 46.2 82.4 46.3001 82.5 46.4001C82.6 46.5001 82.6 46.6 82.6 46.7C82.6 46.8 82.7 46.9 82.7 47L89.3 64C89.4 64.2 89.4 64.3 89.5 64.5C89.6 64.7 89.6 64.9 89.6 65.1C89.8 65.9 89.5 66.7 88.9 67.2L60.6 83.7C60.4 83.8 60.2 83.9001 60.1 83.9001L59.1 84L53.1 68.4001L51.3 63.8H51.2C50.9 63.8 50.6 63.7 50.3 63.6C48.8 62.7 47.8 59.9 49 59.3Z" fill="#F6BD04"/>
<path d="M60.8 83.6L61 83.4C61 83.3 61.1 83.3 61.1 83.2V83.1C61.1 83 61.1 83 61.2 82.9V81.7L89.6 65.2C89.8 66 89.5 66.8 88.9 67.3L60.6 83.7C60.7 83.7 60.7 83.6 60.8 83.6Z" fill="#DB6400"/>
<path d="M89.4 64C89.5 64.2 89.5 64.3 89.6 64.5C89.7 64.7 89.7 64.9 89.7 65.1L61.3 81.7V80.8C61.3 80.7 61.2 80.6 61.2 80.6L89.4 64Z" fill="#DB6400"/>
<path d="M54.4 63.5L82.8 47L89.4 64L61 80.5L54.4 63.5Z" fill="#FF8116"/>
<path d="M49 59.3C49.1 59.3 49.2 59.2 49.3 59.2H50C50.1 59.2 50.3 59.2 50.4 59.3C50.5 59.3 50.5 59.3 50.6 59.4C50.7 59.4 50.8 59.5 50.9 59.5C51.1 59.6 51.2 59.6 51.4 59.7C51.5 59.8 51.7 59.9 51.8 60L51.9 60.1C52 60.2 52.2 60.3 52.3 60.4C52.5 60.6 52.7 60.7 52.8 60.9L53.1 61.2L53.2 61.3C53.3 61.4 53.4 61.6 53.5 61.8V61.9C53.6 62.1 53.7 62.2 53.8 62.4L54.4 63.6L61 80.6C61 80.7 61.1 80.8 61.1 80.9V81C61.1 81.1 61.2 81.2 61.2 81.3V82.9C61.2 83 61.2 83 61.1 83.1V83.2C61.1 83.3 61 83.3 61 83.4C61 83.5 60.9 83.5 60.8 83.6L60.7 83.7C60.5 83.8 60.3 83.9 60.2 83.9L59.2 84L53.2 68.4L51.4 63.8H51.3C51 63.8 50.7 63.7 50.4 63.6C48.8 62.7 47.8 59.9 49 59.3Z" fill="#FFA457"/>
<path d="M80.9 44L81.3 44.4C81.4 44.5 81.5 44.6 81.6 44.8C81.7 44.9 81.8 45 81.8 45.1C81.8 45.2 81.9 45.3 82 45.4C82.1 45.5 82.1 45.6 82.2 45.7C82.3 45.8 82.3 45.9 82.4 46C82.5 46.1 82.5 46.2 82.6 46.3C82.7 46.4 82.7 46.5 82.7 46.6C82.7 46.7 82.8 46.8 82.8 46.9L54.4 63.5C54.4 63.4 54.3 63.3 54.3 63.2C54.3 63.1 54.2 63 54.2 62.9C54.2 62.8 54.1 62.7 54 62.6C53.9 62.5 53.9 62.4 53.8 62.3C53.7 62.2 53.7 62.1 53.6 62C53.6 61.9 53.5 61.9 53.5 61.8V61.7C53.4 61.6 53.3 61.5 53.3 61.4C53.3 61.4 53.3 61.3 53.2 61.3L53 61.2C53 61.2 52.9 61.1 52.9 61C52.9 60.9 52.8 60.9 52.8 60.9L52.6 60.7L52.5 60.6L80.9 44Z" fill="#DB6400"/>
<path d="M77.4 42.8L77.6 42.7H78.4C78.5 42.7 78.6 42.7 78.7 42.8C78.8 42.8 79 42.9 79.1 42.9C79.3 43 79.4 43.1 79.6 43.1L80.8 44L52.5 60.6C52.4 60.5 52.3 60.4 52.2 60.4C52.1 60.3 51.9 60.2 51.8 60.1L51.7 60C51.6 59.9 51.4 59.8 51.3 59.7C51.1 59.6 51 59.5 50.8 59.5C50.7 59.5 50.6 59.4 50.6 59.4C50.5 59.4 50.5 59.4 50.4 59.3C50.3 59.3 50.2 59.3 50.1 59.2H49.3L77.4 42.8Z" fill="#DB6400"/>
<path d="M70.9 86.9L71.8 89.2L78.9 93.3V91.6L70.9 86.9Z" fill="#DEDCDB"/>
<path d="M78.9 93.3L80.4 92.4V90.7L78.9 91.6V93.3Z" fill="#6F7070"/>
<path d="M78.9 91.5L80.4 90.6L72.4 86L70.9 86.9L78.9 91.5Z" fill="#BFBFBF"/>
<path d="M84.3 79.7V81.4L91.8 85.7V84L84.3 79.7Z" fill="#DEDCDB"/>
<path d="M91.8 85.8L93.3 84.9V83.2L91.8 84.1V85.8Z" fill="#6F7070"/>
<path d="M91.8 84.1L93.3 83.2L85.8 78.9L84.3 79.8L91.8 84.1Z" fill="#BFBFBF"/>
<path d="M78.9 89V93.3L79.7 93.7V89.4L78.9 89Z" fill="#181818"/>
<path d="M79.6 93.7L81.1 92.8V88.5L79.6 89.4V93.7Z" fill="#252525"/>
<path d="M79.7 89.4L81.2 88.5L80.4 88.1L78.9 89L79.7 89.4Z" fill="#323232"/>
<path d="M91.8 81.5V85.8L92.6 86.2V81.9L91.8 81.5Z" fill="#181818"/>
<path d="M92.6 86.2L94.1 85.3V81L92.6 81.9V86.2Z" fill="#252525"/>
<path d="M92.6 81.9L94.1 81L93.3 80.6L91.8 81.5L92.6 81.9Z" fill="#323232"/>
<path opacity="0.2" d="M79.2 57.1001C77.5 57.4001 76.1 55.7001 75 54.4001C72.8 52.1001 71.6 49 71.6 45.8C74 47.3 75.6 49.6 77.3 51.8C77.9 52.7 78.7 53.4001 79.5 54.0001C80.2 54.5001 81.4 56.7001 79.2 57.1001ZM60.6 67.0001C58.9 67.3001 57.5 65.6 56.4 64.3C54.2 62 53 58.9 53 55.8C55.4 57.3 57 59.6 58.7 61.8C59.3 62.7 60.1 63.4001 60.9 64.0001C61.6 64.4001 62.8 66.6001 60.6 67.0001Z" fill="#515151"/>
<path d="M51.2 49.3C51.3 51 51.5 52.7 52 54.3C52.6 56.5 57.1 65.4 60.5 64.9H60.7C64.1 64.2 67.4 58.5 67.2 58C67 57.5 66.7 56.8 64.7 57.3C63 59.5 61.1 57.9 60.2 58.7C57.6 56.4 59.4 46.5 54.7 44.9C54.7 44.9 53.5 43.8 52 45.9C51.4 46.9 51.2 48.1 51.2 49.3Z" fill="#FFD4AF"/>
<path d="M51.2 49.3C51.3 51 51.5 52.7 52 54.3C52.6 56.5 57.1 65.4 60.5 64.9H60.7C60.3 64.6 59.9 64.3 59.4 64C58.6 63.3 57.9 62.5 57.2 61.6C56.3 60.5 55.5 59.4 54.7 58.2C53.2 55.9 52.2 53.3 51.6 50.6C51.6 50.1 51.4 49.7 51.2 49.3Z" fill="#FFB87C"/>
<path d="M71.5 46.2C73.5 51.8 76.4 54.8 79.2 54.6C79.7 54.6 80.3 54.4 80.7 54.2C83.8 52.6 87.6 46.5 88.1 44.5C88 44.5 88 44.4 88 44.3C87.4 44.2 86.9 44.1 86.4 43.8C86.3 43.7 86.2 43.7 86.1 43.6C84.1 46.5 80.3 47.8 79 50C77.7 49.4 78.4 46.2 75.7 43.8L72.4 45.7L71.5 46.2Z" fill="#FFD4AF"/>
<path d="M71.5 46.2C73.5 51.8 76.4 54.8 79.2 54.6L78 54.3C77.5 54 77.1 53.7 76.7 53.3C75.9 52.3 75.2 51.2 74.7 50C74 48.6 72.2 46 71.5 44.6V46.2Z" fill="#FFB87C"/>
<path d="M50.4 61.9C50.4 62 50.4 62 50.5 62.1C50.7 62.5 51.2 62.6 51.6 62.4L64 55.4L68.4 55.8C68.7 55.8 68.9 55.7 69.1 55.5L73.6 49.9L80.3 45.9L84.7 46.3C85 46.3 85.2 46.2 85.4 46L89.9 40.4L99.5 34.7C99.9 34.5 100 34 99.8 33.6V33.5C99.6 33.2 99.1 33.1 98.8 33.3L89.1 39C89 39 88.9 39.1 88.9 39.2L84.5 44.6H84.3L80.3 44.3H80.1C80 44.3 79.9 44.3 79.9 44.4L72.9 48.6C72.8 48.6 72.7 48.7 72.7 48.8L68 54.1H67.8L63.8 53.8H63.6C63.5 53.8 63.4 53.8 63.4 53.9L50.8 61C50.4 61.1 50.3 61.5 50.4 61.9Z" fill="#515151"/>
<path d="M50.4 61.9L63.4 54.5L67.9 54.9C68 54.9 68.2 54.9 68.2 54.8L72.8 49.1L79.7 45L84.2 45.4C84.3 45.4 84.5 45.4 84.5 45.3L89.1 39.6L99.6 33.5C99.4 33.2 98.9 33.1 98.6 33.3L88.9 39C88.8 39 88.7 39.1 88.7 39.2L84.3 44.6H84.1L79.9 44.2H79.7C79.6 44.2 79.5 44.2 79.5 44.3L72.5 48.5L72.4 48.6L67.9 54.1L63.7 53.7C63.6 53.7 63.5 53.7 63.5 53.8L50.9 60.9C50.4 61.1 50.3 61.5 50.4 61.9Z" fill="#96999B"/>
<path d="M54.9 57.9C55.4 59.2 56.2 60.4 57.3 61.4C57.6 61.7 58 61.9 58.3 62.1C58.9 62.5 59.5 62.6 60.2 62.6L60.3 62.8L60.8 62.5L61.7 61.9C62.8 61.3 63.2 59.6 62.6 57.6C62.5 57.4 62.4 57.1 62.3 56.9C62.2 56.8 62.2 56.6 62.1 56.5C61.9 56 61.6 55.5 61.3 55C61 54.5 60.6 54.1 60.2 53.7L60.1 53.6C59.8 53.3 59.4 53.1 59.1 52.9C58.9 52.8 58.8 52.7 58.6 52.7C58.1 52.5 57.6 52.4 57.1 52.4C56.8 52.4 56.4 52.5 56.1 52.7L54.9 53.5L55 53.6C54.3 54.3 54.2 56 54.9 57.9Z" fill="#090909"/>
<path d="M55.8 52.9C56.5 52.9 57.2 53.1 57.7 53.4C59.3 54.4 60.4 55.9 61.1 57.6C62.2 60.4 61.5 62.7 59.7 62.9C59 62.9 58.3 62.7 57.8 62.4C57.4 62.2 57.1 61.9 56.8 61.7C55.8 60.7 54.9 59.6 54.4 58.2C53.3 55.5 53.9 53.1 55.8 52.9Z" fill="#323232"/>
<path d="M54.8 58C55.3 59.2 56 60.3 57 61.2C57.3 61.5 57.6 61.7 57.9 61.9C58.3 62.2 58.8 62.3 59.4 62.4H59.6C60.1 62.4 60.5 62.1 60.7 61.7C61 61.2 61.1 60.5 61.1 59.9C61.1 59.2 60.9 58.5 60.6 57.8C60 56.2 58.9 54.8 57.5 53.9C57.1 53.7 56.7 53.5 56.2 53.5H55.9C55.4 53.5 55 53.8 54.8 54.2C54.2 55.4 54.2 56.8 54.8 58Z" fill="#14181A"/>
<path d="M55.3 57.7C55.7 58.9 56.4 59.9 57.4 60.7L58.3 61.3C58.7 61.6 59.2 61.7 59.7 61.7H59.8C60.2 61.7 60.6 61.4 60.8 61.1C61 60.7 61.1 60.3 61.1 59.9C61.1 59.2 60.9 58.5 60.6 57.8C60 56.2 58.9 54.8 57.5 53.9C57.1 53.7 56.7 53.5 56.2 53.4C55.8 53.4 55.4 53.7 55.2 54C54.7 55.3 54.7 56.6 55.3 57.7Z" fill="#181818"/>
<path d="M56.7 56.8L56.9 56.6C57 56.5 57.1 56.5 57.2 56.5C57.4 56.5 57.6 56.5 57.8 56.6C57.9 56.7 58 56.7 58.1 56.8C58.4 57.1 58.6 57.4 58.8 57.8C59 58.4 59 59 58.7 59.2H58.6L58.3 59.4V59.3C58.1 59.3 57.9 59.2 57.8 59.1C57.4 58.8 57 58.4 56.8 57.9C56.7 57.6 56.6 57.2 56.7 56.9C56.6 56.9 56.7 56.9 56.7 56.8Z" fill="#14181A"/>
<path d="M56.4 57.1C56.4 56.8 56.7 56.6 56.9 56.6C57.1 56.6 57.3 56.6 57.5 56.7C57.6 56.8 57.7 56.8 57.8 56.9C58.1 57.2 58.3 57.5 58.5 57.9C58.6 58.2 58.7 58.6 58.6 58.9C58.6 59.2 58.3 59.4 58.1 59.4C57.9 59.4 57.7 59.4 57.5 59.3C57.1 59 56.7 58.6 56.5 58.1C56.3 57.8 56.3 57.5 56.4 57.1Z" fill="#20282D"/>
<path d="M56.9 57.6C56.9 57.5 57 57.4 57.2 57.4C57.3 57.4 57.4 57.4 57.5 57.5C57.6 57.5 57.6 57.6 57.6 57.6C57.8 57.7 57.9 57.9 57.9 58.1C58 58.3 58 58.5 58 58.6C58 58.7 57.9 58.8 57.7 58.8C57.6 58.8 57.5 58.8 57.4 58.7C57.2 58.6 57 58.3 56.9 58.1C56.9 57.9 56.8 57.7 56.9 57.6Z" fill="#6F7070"/>
<path d="M91.2 36.9C91.7 38.2 92.5 39.4 93.6 40.4C93.9 40.7 94.3 40.9 94.6 41.1C95.2 41.5 95.8 41.6 96.5 41.6L96.6 41.8L97.1 41.5L98 40.9C99.1 40.3 99.5 38.6 98.9 36.6C98.8 36.2 98.6 35.8 98.5 35.4C98.3 34.9 98 34.4 97.7 33.9C97.4 33.4 97 33 96.6 32.6L96.5 32.5C96.2 32.2 95.8 32 95.5 31.8C95.3 31.7 95.2 31.6 95 31.6C94.5 31.4 94 31.3 93.5 31.3C93.2 31.3 92.8 31.4 92.6 31.6L91.4 32.4L91.5 32.6C90.5 33.3 90.4 35 91.2 36.9Z" fill="#090909"/>
<path d="M92 31.9C92.7 31.9 93.4 32.1 93.9 32.4C95.4 33.4 96.6 34.9 97.3 36.6C98.4 39.4 97.7 41.7 95.9 41.9C95.2 41.9 94.5 41.7 94 41.4C93.6 41.2 93.3 40.9 93 40.7C92 39.7 91.1 38.6 90.6 37.2C89.5 34.4 90.1 32.1 92 31.9Z" fill="#323232"/>
<path d="M91.1 37C91.6 38.2 92.3 39.3 93.3 40.2C93.6 40.5 93.9 40.7 94.2 40.9C94.6 41.2 95.1 41.3 95.7 41.4H95.9C96.4 41.4 96.8 41.1 97 40.7C97.3 40.2 97.4 39.5 97.4 38.9C97.4 38.2 97.2 37.5 96.9 36.8C96.3 35.2 95.2 33.8 93.8 32.9C93.4 32.7 93 32.5 92.5 32.4H92.1C91.6 32.4 91.2 32.7 91 33.1C90.4 34.4 90.5 35.8 91.1 37Z" fill="#14181A"/>
<path d="M91.5 36.7C91.9 37.9 92.6 38.9 93.6 39.7L94.5 40.3C94.9 40.6 95.4 40.7 95.9 40.7H96C96.4 40.7 96.8 40.4 97 40.1C97.2 39.7 97.3 39.3 97.3 38.9C97.3 38.2 97.1 37.5 96.8 36.8C96.2 35.2 95.1 33.8 93.7 32.9C93.3 32.7 92.9 32.5 92.4 32.4C92 32.4 91.6 32.7 91.4 33C90.9 34.2 90.9 35.6 91.5 36.7Z" fill="#181818"/>
<path d="M92.9 35.8L93.1 35.6C93.2 35.5 93.3 35.5 93.4 35.5C93.6 35.5 93.8 35.5 94 35.6C94.1 35.7 94.2 35.7 94.3 35.8C94.6 36.1 94.8 36.4 95 36.8C95.2 37.4 95.2 38 94.9 38.2H94.8L94.5 38.4V38.3C94.3 38.3 94.1 38.2 94 38.1C93.6 37.8 93.2 37.4 93 36.9C92.9 36.6 92.8 36.2 92.9 35.9V35.8Z" fill="#14181A"/>
<path d="M92.6 36.1C92.6 35.8 92.9 35.6 93.1 35.6C93.3 35.6 93.5 35.6 93.7 35.7C93.8 35.8 93.9 35.8 94 35.9C94.3 36.2 94.5 36.5 94.7 36.9C94.8 37.2 94.9 37.6 94.8 37.9C94.8 38.2 94.5 38.4 94.3 38.4C94.1 38.4 93.9 38.4 93.7 38.3C93.3 38 92.9 37.6 92.7 37.1C92.6 36.8 92.5 36.5 92.6 36.1Z" fill="#20282D"/>
<path d="M93.1 36.6C93.1 36.5 93.2 36.4 93.4 36.4C93.5 36.4 93.6 36.4 93.7 36.5C93.8 36.5 93.8 36.6 93.8 36.6C94 36.7 94.1 36.9 94.1 37.1C94.2 37.3 94.2 37.5 94.2 37.6C94.2 37.7 94.1 37.8 93.9 37.8C93.8 37.8 93.7 37.8 93.6 37.7C93.4 37.6 93.2 37.3 93.1 37.1V36.6ZM50.4 61.9C50.4 62 50.4 62 50.5 62.1C50.7 62.5 51.2 62.6 51.6 62.4L57.9 58.8L57.3 58L57 57.4L50.8 60.9C50.4 61.1 50.3 61.5 50.4 61.9Z" fill="#6F7070"/>
<path d="M50.4 61.9001L57.8 57.7001C57.8 57.7001 57.6 57.4 57.3 57.3C57.2 57.3 57.1 57.3001 57 57.4001L50.8 60.9001C50.4 61.1001 50.3 61.5001 50.4 61.9001Z" fill="#96999B"/>
<path d="M89.5 38.6L89.9 39.1L90.4 39.9L94.1 37.7L93.6 37L93.3 36.4L89.5 38.6Z" fill="#515151"/>
<path d="M89.5 38.6L89.9 39.1L94.1 36.7L93.8 36.4C93.5 36.2 93.4 36.4 93.4 36.4L89.5 38.6Z" fill="#96999B"/>
<path d="M66.4 57.6C66.5 57.6 66.6 59 66.8 58.9C67 58.8 67.1 58.6 67.2 58.5C67.7 57.8 68.3 55.7 68.8 55.1C68.9 55 68.9 54.9 68.9 54.8C68.9 54.7 68.9 54.6 68.8 54.5C68.7 54.2 68.6 53.9 68.4 53.7C68.3 53.5 68.1 53.2 67.9 53.1C67.7 53 67.3 53 67.2 53.2C66.9 53 66.5 53 66.2 53.3C65.9 53 64.7 53 65 53.3C65.5 54.5 65.5 54.2 65 55.3C64.9 55.5 65.5 56.4 64.8 57.3C64.9 58.2 65.7 57.8 66.4 57.6ZM88 44.8C87.9 43.9 87.8 43.1 87.5 42.2C87.5 42.1 87.4 42 87.4 41.9C87.3 41.8 87.2 41.8 87.1 41.8C86.8 41.7 86.5 41.6 86.2 41.6C85.9 41.5 85.7 41.6 85.4 41.6C85.1 41.7 85 42 85 42.3C84.7 42.4 84.4 42.7 84.5 43.1C84 43.1 83.4 44.1 83.8 44.1C85 44.4 84.8 44.2 85.3 45.3C85.9 45.9 86.4 46.6 86.7 47.4C87.3 47 87.7 45.5 88 44.8Z" fill="#FFD4AF"/>
<path d="M65.3 56.6C64.8 56.5 64.4 56.1 64.2 55.6C64.5 55.5 64.6 55.1 64.9 55.1C65.1 55.1 65.3 55.2 65.4 55.4C65.6 55.7 65.6 56 65.6 56.3C65.6 56.4 65.6 56.4 65.5 56.5C65.4 56.6 65.3 56.6 65.3 56.6C65.2 56.6 65.2 56.6 65.3 56.6Z" fill="#FFD4AF"/>
</svg>
