<svg width="137" height="137" viewBox="0 0 137 137" fill="none" xmlns="http://www.w3.org/2000/svg">
<path d="M82.3601 1.42866C45.4306 -6.1545 9.30095 17.6651 1.71779 54.5945C-1.90281 72.2266 1.65534 89.6995 10.3684 103.943L0.364126 127.308L28.2334 123.333C35.951 129.001 44.9123 133.087 54.9038 135.139C91.8333 142.722 127.963 118.902 135.546 81.9729C143.011 45.1213 119.192 8.9917 82.3601 1.42866Z" fill="#393737"/>
<path d="M52.6 61C52.6 61 70.4001 48.1 75.5001 47.6C80.6001 47.1 84.1 48.7 79.9 52.1C75.7 55.5 63.1001 63.7 61.5001 65.8C59.9001 67.8 57.2 74.7 68.2 69.5C79.2 64.3 86.6 54.2 90.1 52C93.6 49.8 100.9 55.2 97.9 61.4C93 69.1 78.6 76.8 78.6 76.8" stroke="#0B8DD8" stroke-width="2"/>
<path d="M56.866 84.086L74.466 73.886C75.866 73.186 77.866 74.186 79.066 76.286C80.266 78.386 80.166 80.686 78.766 81.486C78.666 81.586 78.466 81.686 78.266 81.786L61.166 91.586L56.866 84.086Z" fill="#492200"/>
<path d="M61.572 91.4992C62.9113 90.726 63.0119 88.3932 61.7969 86.2887C60.5819 84.1842 58.5113 83.105 57.172 83.8782C55.8328 84.6514 55.7321 86.9842 56.9472 89.0887C58.1622 91.1932 60.2328 92.2724 61.572 91.4992Z" fill="#7C3900"/>
<path d="M31.6021 68.767L49.202 58.567C50.602 57.867 52.602 58.867 53.802 60.967C55.002 63.067 54.9021 65.367 53.5021 66.167C53.4021 66.267 53.2021 66.367 53.0021 66.467L35.9021 76.267L31.6021 68.767Z" fill="#492200"/>
<path d="M36.3081 76.1801C37.6473 75.4069 37.748 73.0741 36.533 70.9696C35.318 68.8651 33.2473 67.7859 31.9081 68.5591C30.5689 69.3323 30.4682 71.6651 31.6832 73.7696C32.8983 75.8741 34.9689 76.9533 36.3081 76.1801Z" fill="#7C3900"/>
</svg>
