<svg width="139" height="136" viewBox="0 0 139 136" fill="none" xmlns="http://www.w3.org/2000/svg">
<path d="M128.329 35.2654C110.393 2.44638 69.051 -9.60382 35.9687 8.47519C2.88637 26.5542 -9.29953 67.8569 8.63562 100.676C25.7076 131.915 63.7941 144.264 95.9856 129.976L125.878 134.837L123.98 107.384C141.881 86.5477 142.236 60.7134 128.329 35.2654Z" fill="#3E3E3E"/>
<path d="M57.554 110.577L58.254 110.177C57.954 109.977 57.754 109.677 57.754 109.377C57.754 109.277 57.754 109.177 57.854 109.077L57.154 109.477C57.054 109.577 57.054 109.677 57.054 109.777C57.054 110.077 57.254 110.377 57.554 110.577Z" fill="#99AEAA"/>
<path d="M57.807 110.664L58.507 110.164H58.207L57.507 110.564C57.607 110.664 57.707 110.664 57.807 110.664Z" fill="#99AEAA"/>
<path d="M57.554 110.583L58.254 110.183C57.954 109.983 57.754 109.683 57.754 109.383C57.754 109.283 57.754 109.183 57.854 109.083L57.154 109.483C57.054 109.583 57.054 109.683 57.054 109.783C57.054 110.083 57.254 110.383 57.554 110.583Z" fill="#99AEAA"/>
<path d="M57.487 109.552L58.187 109.152C58.187 109.052 57.987 109.052 57.887 109.052L57.187 109.552C57.287 109.452 57.387 109.452 57.487 109.552Z" fill="#546063"/>
<path d="M57.81 110.614L58.51 110.214C58.61 110.114 58.71 110.014 58.71 109.914C58.71 109.614 58.51 109.314 58.21 109.114L57.51 109.514C57.81 109.714 57.91 110.014 58.01 110.314C58.01 110.414 57.91 110.514 57.81 110.614Z" fill="#546063"/>
<path d="M57.494 109.544C57.194 109.444 56.994 109.544 56.994 109.844C56.994 110.144 57.194 110.444 57.494 110.644C57.794 110.744 57.994 110.644 57.994 110.344C57.994 110.044 57.794 109.744 57.494 109.544Z" fill="#414A4D"/>
<path d="M57.541 108.926L58.241 108.526C58.041 108.426 57.741 108.426 57.541 108.526L56.841 108.926C57.041 108.826 57.341 108.826 57.541 108.926ZM58.212 111.256L58.912 110.856C59.112 110.756 59.212 110.456 59.212 110.256C59.112 109.556 58.812 108.956 58.212 108.556L57.512 108.956C58.112 109.356 58.412 109.956 58.412 110.556C58.512 110.856 58.412 111.056 58.212 111.256Z" fill="#99AEAA"/>
<path d="M57.494 108.944C56.994 108.644 56.594 108.844 56.594 109.444C56.594 110.144 56.994 110.744 57.494 111.044C57.994 111.344 58.394 111.144 58.394 110.544C58.394 109.944 58.094 109.344 57.494 108.944ZM57.494 110.544C57.194 110.344 57.094 110.044 56.994 109.744C56.994 109.444 57.194 109.344 57.494 109.444C57.794 109.644 57.894 109.944 57.994 110.244C57.994 110.644 57.794 110.744 57.494 110.544Z" fill="#778683"/>
<path d="M42.294 48.3438L43.894 47.8438V47.7438H44.094V47.8438L45.694 48.3438L44.494 69.7438C44.494 69.7438 44.394 70.1438 43.994 70.1438H43.794C43.394 70.1438 43.394 69.7438 43.394 69.7438L42.294 48.3438Z" fill="#0A0A0A"/>
<path d="M55.494 84.2438L58.194 83.7438V83.6438H58.394V83.7438L60.294 84.3438L58.994 108.944C58.894 109.444 58.494 109.844 57.994 109.844C56.994 109.844 56.894 109.144 56.894 109.144L55.494 84.2438Z" fill="#252525"/>
<path d="M92.318 90.3218L93.018 89.9218C92.718 89.7218 92.518 89.4218 92.518 89.1218C92.518 89.0218 92.518 88.9218 92.618 88.8218L91.918 89.2218C91.818 89.3218 91.818 89.4218 91.818 89.5218C91.818 89.8218 92.018 90.1218 92.318 90.3218Z" fill="#99AEAA"/>
<path d="M92.572 90.4088L93.272 89.9088H92.972L92.272 90.3088C92.372 90.4088 92.472 90.4088 92.572 90.4088Z" fill="#99AEAA"/>
<path d="M92.318 90.3278L93.018 89.9278C92.718 89.7278 92.518 89.4278 92.518 89.1278C92.518 89.0278 92.518 88.9278 92.618 88.8278L91.918 89.2278C91.818 89.3278 91.818 89.4278 91.818 89.5278C91.818 89.8278 92.018 90.1278 92.318 90.3278Z" fill="#99AEAA"/>
<path d="M92.251 89.2968L92.951 88.8968C92.851 88.7968 92.751 88.7968 92.651 88.7968L91.951 89.2968C92.051 89.1968 92.151 89.1968 92.251 89.2968Z" fill="#546063"/>
<path d="M92.575 90.3588L93.275 89.9588C93.375 89.8588 93.475 89.7588 93.475 89.6588C93.475 89.3588 93.275 89.0588 92.975 88.8588L92.275 89.2588C92.575 89.4588 92.675 89.7588 92.775 90.0588C92.775 90.1588 92.675 90.2588 92.575 90.3588Z" fill="#546063"/>
<path d="M92.294 89.2438C91.994 89.1438 91.794 89.2438 91.794 89.5438C91.794 89.8438 91.994 90.1438 92.294 90.3438C92.594 90.4438 92.794 90.3438 92.794 90.0438C92.694 89.7438 92.594 89.4438 92.294 89.2438Z" fill="#414A4D"/>
<path d="M92.305 88.7708L93.005 88.3708C92.805 88.1708 92.505 88.1708 92.305 88.2708L91.605 88.6708C91.805 88.5708 92.105 88.5708 92.305 88.7708Z" fill="#99AEAA"/>
<path d="M92.976 91.0008L93.676 90.6008C93.876 90.5008 93.976 90.2008 93.976 90.0008C93.876 89.3008 93.576 88.7008 92.976 88.3008L92.276 88.7008C92.876 89.1008 93.176 89.7008 93.176 90.3008C93.276 90.6008 93.176 90.8008 92.976 91.0008Z" fill="#99AEAA"/>
<path d="M92.294 88.7438C91.794 88.4438 91.394 88.6438 91.394 89.2438C91.394 89.9438 91.794 90.5438 92.294 90.8438C92.794 91.1438 93.194 90.9438 93.194 90.3438C93.194 89.6438 92.794 89.0438 92.294 88.7438ZM92.294 90.3438C91.994 90.1438 91.894 89.8438 91.794 89.5438C91.794 89.2438 91.994 89.1438 92.294 89.2438C92.594 89.4438 92.694 89.7438 92.794 90.0438C92.694 90.3438 92.494 90.4438 92.294 90.3438Z" fill="#778683"/>
<path d="M90.294 63.9438L92.994 63.4438V63.3438H93.194V63.4438L95.094 64.0438L93.794 88.6438C93.694 89.1438 93.294 89.5438 92.794 89.5438C91.794 89.5438 91.694 88.8438 91.694 88.8438L90.294 63.9438Z" fill="#0A0A0A"/>
<path d="M54.594 75.6438V88.8438L95.694 65.2438V52.0438L54.594 75.6438Z" fill="#0A0A0A"/>
<path d="M48.394 27.4438C44.494 29.7438 38.094 34.4438 41.994 39.4438C46.294 44.9438 52.694 46.3438 51.394 51.3438C49.894 56.9438 41.694 58.0438 41.694 64.4438C41.694 66.9438 45.494 69.6438 49.894 72.5438L54.594 75.6438L95.694 52.0438L51.094 26.0438C50.194 26.4438 49.294 26.9438 48.394 27.4438Z" fill="#514F4E"/>
<path d="M49.094 28.1438C45.394 30.2438 39.394 34.7438 43.094 39.4438C47.194 44.6438 53.594 46.6438 52.394 51.3438C50.694 57.8438 41.594 58.6438 42.794 64.6438C43.094 66.3438 43.894 67.0438 47.594 69.7438L55.194 74.6438L93.994 51.8438L51.594 26.8438C51.594 26.8438 50.494 27.2438 49.094 28.1438ZM62.494 89.8438V93.4438L103.594 69.7438V66.1438L62.494 89.8438Z" fill="#0A0A0A"/>
<path d="M54.594 85.2438L62.494 89.8438L103.594 66.1438L95.694 61.5438L54.594 85.2438Z" fill="#9F9F9F"/>
<path d="M51.494 47.4438C50.294 45.7438 48.094 44.3438 45.994 42.4438C45.894 42.2438 45.694 42.0438 45.594 41.9438C41.894 37.2438 47.894 32.7438 51.594 30.6438C52.994 29.8438 54.094 29.3438 54.094 29.3438L93.494 52.2438L55.194 74.7438C55.194 74.7438 46.994 69.3438 46.494 69.0438C45.694 68.6438 45.194 67.8438 45.094 66.9438C44.294 62.5438 48.594 61.0438 51.594 58.1438C52.094 57.5438 52.394 56.7438 52.494 55.9438V51.2438C52.494 48.8438 51.894 47.7438 51.494 47.4438Z" fill="#606060"/>
<path opacity="0.47" d="M95.694 52.0438L67.194 56.5438L43.194 35.4438C43.194 35.4438 54.094 35.3438 54.494 33.6438C55.094 30.7438 45.494 25.1438 49.894 23.7438C54.294 22.3438 56.694 24.2438 56.694 24.2438L95.694 52.0438Z" fill="#0A0A0A"/>
<path d="M67.194 45.8438L54.194 74.0438L52.494 72.9438L67.194 45.8438Z" fill="#353434"/>
<path d="M94.794 52.5438L58.194 45.6438L44.494 33.6438V32.7438C46.294 32.7438 51.894 32.9438 52.194 31.5438C52.394 30.5438 51.094 29.0438 49.894 27.7438C49.194 27.1438 48.694 26.5438 48.294 25.7438C48.194 25.3438 48.194 24.9438 48.394 24.6438C48.494 24.2438 48.794 23.9438 49.194 23.8438C51.694 22.9438 54.494 23.4438 56.594 25.0438L95.694 52.0438L94.794 52.5438Z" fill="#514F4E"/>
<path d="M95.694 52.0438L58.294 44.7438L44.494 32.6438C44.494 32.6438 51.994 32.6438 52.394 31.0438C52.994 28.1438 45.394 25.0438 49.694 23.5438C53.994 22.0438 56.494 24.0438 56.494 24.0438L95.694 52.0438Z" fill="#2E2E2E"/>
<path d="M97.065 61.3038L98.265 60.6038C97.665 60.2038 97.265 59.6038 97.265 58.9038L96.065 59.6038C96.065 60.3038 96.465 60.9038 97.065 61.3038Z" fill="#3F3D3B"/>
<path d="M96.094 59.5438L97.294 58.8438V55.0438L96.094 55.7438V59.5438ZM102.394 67.0438L103.594 66.3438V66.0438L102.394 66.7438V67.0438Z" fill="#222120"/>
<path d="M100.394 63.2438L101.594 62.5438L98.194 60.5438L96.994 61.2438L100.394 63.2438Z" fill="#363433"/>
<path d="M96.094 55.8249L97.294 55.1249C97.194 53.9249 96.594 52.8249 95.594 52.2249L94.394 52.9249C95.394 53.5249 95.994 54.6249 96.094 55.8249ZM102.437 66.6719L103.637 65.9719C103.537 64.5719 102.837 63.3719 101.637 62.5719L100.437 63.2719C101.637 64.0719 102.337 65.2719 102.437 66.6719Z" fill="#3F3D3B"/>
<path d="M94.394 52.9438V62.4438L102.394 67.0438V66.6438C102.294 65.2438 101.594 63.9438 100.394 63.2438L96.994 61.2438C96.394 60.8438 95.994 60.2438 95.994 59.5438V55.7438C95.994 54.6438 95.394 53.5438 94.394 52.9438Z" fill="#545454"/>
<path d="M56.194 84.4438V85.7438L61.794 88.9438V87.6438L56.194 84.4438Z" fill="#8F8F8F"/>
<path d="M61.794 87.7438V89.0438L100.694 66.7438V65.4438L61.794 87.7438Z" fill="#646464"/>
<path d="M55.994 84.4438L61.794 87.7438L100.694 65.4438L94.894 62.1438L55.994 84.4438Z" fill="white"/>
<path d="M57.124 84.0698L58.324 83.3698C57.724 82.9698 57.324 82.3698 57.324 81.6698L56.124 82.3698C56.124 83.0698 56.524 83.6698 57.124 84.0698Z" fill="#3F3D3B"/>
<path d="M56.094 82.3438L57.294 81.6438V77.8438L56.094 78.5438V82.3438ZM62.494 89.9438L63.694 89.2438V88.8438L62.494 89.5438V89.9438Z" fill="#222120"/>
<path d="M60.494 86.0438L61.694 85.3438L58.294 83.3438L57.094 84.0438L60.494 86.0438Z" fill="#363433"/>
<path d="M56.152 78.5229L57.352 77.8229C57.252 76.6229 56.652 75.6229 55.652 74.9229L54.452 75.6229C55.452 76.3229 56.052 77.3228 56.152 78.5229ZM62.495 89.5759L63.695 88.8759C63.595 87.4759 62.895 86.1759 61.695 85.3759L60.495 86.0759C61.695 86.8759 62.395 88.1759 62.495 89.5759Z" fill="#3F3D3B"/>
<path d="M49.594 72.2438L54.594 75.6438C55.494 76.3438 56.094 77.3438 56.094 78.5438V82.3438C56.094 83.0438 56.494 83.6438 57.094 84.0438L60.494 86.0438C61.694 86.8438 62.394 88.1438 62.494 89.5438V93.4438L54.594 88.9438L50.694 86.7438C45.894 84.0438 41.694 80.3438 41.694 77.7438V64.5438C41.694 66.7438 45.894 69.6438 49.594 72.2438Z" fill="#2E2E2E"/>
<path d="M63.594 83.9438C63.594 83.8438 63.594 83.8438 63.594 83.9438L60.494 81.9438H60.294L59.694 82.1438V82.2438L62.794 84.1438H62.994L63.594 83.9438L63.494 84.4438V84.3438L63.594 83.9438Z" fill="#1C2932"/>
<path d="M62.994 84.1439H62.794V84.5439H62.994L63.494 84.3439V83.9439L62.994 84.1439ZM62.794 84.1439L59.694 82.2439V82.1439V82.6439L62.794 84.5439V84.1439Z" fill="#1C2932"/>
<path d="M60.801 81.6638C60.701 81.6638 60.701 81.5638 60.801 81.6638Z" fill="#202F3A"/>
<path d="M64.594 83.3438V83.7438L64.094 84.0438V83.6438L64.594 83.3438Z" fill="#19242D"/>
<path d="M63.894 83.5438V83.9438L60.694 82.0438V81.6438L63.894 83.5438Z" fill="#11191F"/>
<path d="M64.061 83.5708V83.9708H63.861V83.5708H64.061Z" fill="#202F3A"/>
<path d="M64.594 83.2438C64.594 83.3438 64.594 83.3438 64.594 83.2438L64.094 83.5438H63.894L60.794 81.6438C60.794 81.6438 60.694 81.5438 60.794 81.5438L61.294 81.3438H61.494L64.594 83.2438Z" fill="#1C2932"/>
<path d="M67.063 78.0689C66.963 78.0689 66.963 77.9689 67.063 78.0689Z" fill="#202F3A"/>
<path d="M70.794 79.7438V80.1438L70.294 80.3438V79.9438L70.794 79.7438Z" fill="#19242D"/>
<path d="M70.094 79.9438V80.3438L66.994 78.4438V78.0438L70.094 79.9438Z" fill="#11191F"/>
<path d="M70.322 79.9758V80.3758H70.122V79.9758H70.322Z" fill="#202F3A"/>
<path d="M70.794 79.6438C70.894 79.6438 70.894 79.6438 70.794 79.6438C70.794 79.7438 70.794 79.7438 70.794 79.6438L70.294 79.9438H70.094L66.994 78.0438C66.894 78.0438 66.894 77.9438 66.994 77.9438L67.494 77.7438H67.694L70.794 79.6438Z" fill="#1C2932"/>
<path d="M68.119 77.4688C68.019 77.4688 68.019 77.3688 68.119 77.4688Z" fill="#202F3A"/>
<path d="M71.894 79.1438V79.5438L71.394 79.7438V79.3438L71.894 79.1438Z" fill="#19242D"/>
<path d="M71.194 79.3438V79.7438L68.094 77.8438V77.4438L71.194 79.3438Z" fill="#11191F"/>
<path d="M71.378 79.3759V79.7759H71.178V79.3759H71.378Z" fill="#202F3A"/>
<path d="M71.894 79.0438C71.894 79.1438 71.894 79.1438 71.894 79.0438L71.394 79.3438H71.194L68.094 77.4438V77.3438L68.594 77.1438H68.794L71.894 79.0438Z" fill="#1C2932"/>
<path d="M62.869 80.4148C62.769 80.4148 62.769 80.3148 62.869 80.4148Z" fill="#202F3A"/>
<path d="M66.594 82.1438V82.5438L66.094 82.7438V82.3438L66.594 82.1438Z" fill="#19242D"/>
<path d="M65.894 82.3438V82.7438L62.794 80.8438V80.4438L65.894 82.3438Z" fill="#11191F"/>
<path d="M66.128 82.3218V82.7218H65.928V82.3218H66.128Z" fill="#202F3A"/>
<path d="M66.594 81.9438C66.694 82.0438 66.694 81.9438 66.594 81.9438C66.594 82.0438 66.594 82.0438 66.594 81.9438L66.094 82.2438H65.894L62.794 80.3438V80.2438L63.294 80.0438H63.494L66.594 81.9438Z" fill="#1C2932"/>
<path d="M63.924 79.8148C63.824 79.8148 63.824 79.7148 63.924 79.8148Z" fill="#202F3A"/>
<path d="M67.694 81.5438V81.9438L67.194 82.1438V81.7438L67.694 81.5438Z" fill="#19242D"/>
<path d="M66.994 81.7438V82.1438L63.894 80.2438V79.8438L66.994 81.7438Z" fill="#11191F"/>
<path d="M67.183 81.7208V82.1208H66.983V81.7208H67.183Z" fill="#202F3A"/>
<path d="M67.694 81.3438C67.694 81.4438 67.694 81.4438 67.694 81.3438L67.194 81.6438H66.994L63.894 79.7438C63.894 79.7438 63.794 79.6438 63.894 79.6438L64.394 79.4438H64.594L67.694 81.3438Z" fill="#1C2932"/>
<path d="M65.032 79.2149C64.932 79.2149 64.932 79.1149 65.032 79.2149Z" fill="#202F3A"/>
<path d="M68.794 80.9438V81.3438L68.294 81.5438V81.1438L68.794 80.9438Z" fill="#19242D"/>
<path d="M68.094 81.1438V81.5438L64.994 79.6438V79.2438L68.094 81.1438Z" fill="#11191F"/>
<path d="M68.291 81.1218V81.5218H68.091V81.1218H68.291Z" fill="#202F3A"/>
<path d="M68.794 80.7438C68.894 80.8438 68.894 80.7438 68.794 80.7438L68.294 81.0438H68.094L64.994 79.1438C64.994 79.1438 64.894 79.0438 64.994 79.0438L65.494 78.8438H65.694L68.794 80.7438Z" fill="#1C2932"/>
<path d="M70.676 75.8358C70.576 75.8358 70.576 75.7358 70.676 75.8358Z" fill="#202F3A"/>
<path d="M74.394 77.5438V77.9438L73.894 78.1438V77.7438L74.394 77.5438Z" fill="#19242D"/>
<path d="M73.794 77.7438V78.1438L70.694 76.2438V75.8438L73.794 77.7438Z" fill="#11191F"/>
<path d="M73.935 77.7438V78.1438H73.735V77.7438H73.935Z" fill="#202F3A"/>
<path d="M74.494 77.4438C74.494 77.5438 74.494 77.5438 74.494 77.4438L73.994 77.7438H73.794L70.694 75.8438C70.694 75.8438 70.594 75.7438 70.694 75.7438L71.194 75.5438H71.394L74.494 77.4438Z" fill="#1C2932"/>
<path d="M71.732 75.2368C71.632 75.2368 71.632 75.1368 71.732 75.2368Z" fill="#202F3A"/>
<path d="M75.494 76.9438V77.3438L74.994 77.5438V77.1438L75.494 76.9438Z" fill="#19242D"/>
<path d="M74.794 77.1438V77.5438L71.694 75.6438V75.2438L74.794 77.1438Z" fill="#11191F"/>
<path d="M74.991 77.1428V77.5428H74.791V77.1428H74.991Z" fill="#202F3A"/>
<path d="M75.494 76.8438C75.594 76.9438 75.594 76.8438 75.494 76.8438L74.994 77.1438H74.794L71.694 75.2438C71.594 75.2438 71.594 75.1438 71.694 75.1438L72.194 74.9438H72.394L75.494 76.8438Z" fill="#1C2932"/>
<path d="M77.994 71.6419C77.894 71.6419 77.894 71.5419 77.994 71.6419Z" fill="#202F3A"/>
<path d="M81.794 73.3438V73.7438L81.294 73.9438V73.5438L81.794 73.3438Z" fill="#19242D"/>
<path d="M81.094 73.5438V73.9438L77.894 72.0438V71.6438L81.094 73.5438Z" fill="#11191F"/>
<path d="M81.254 73.5498V73.9498H81.054V73.5498H81.254Z" fill="#202F3A"/>
<path d="M81.794 73.2438C81.794 73.3438 81.794 73.3438 81.794 73.2438L81.294 73.5438H81.094L77.994 71.6438C77.994 71.6438 77.894 71.5438 77.994 71.5438L78.494 71.3438H78.694L81.794 73.2438Z" fill="#1C2932"/>
<path d="M79.049 71.0429C78.949 71.0429 78.949 70.9429 79.049 71.0429Z" fill="#202F3A"/>
<path d="M82.794 72.7438V73.1438L82.294 73.3438V72.9438L82.794 72.7438Z" fill="#19242D"/>
<path d="M82.094 72.9438V73.3438L78.994 71.4438V71.0438L82.094 72.9438Z" fill="#11191F"/>
<path d="M82.309 72.9498V73.3498H82.109V72.9498H82.309Z" fill="#202F3A"/>
<path d="M82.794 72.6438C82.894 72.7438 82.894 72.6438 82.794 72.6438L82.294 72.9438H82.094L78.994 71.0438C78.994 71.0438 78.894 70.9438 78.994 70.9438L79.494 70.7438H79.694L82.794 72.6438Z" fill="#1C2932"/>
<path d="M73.8 73.9878C73.7 73.9878 73.7 73.8878 73.8 73.9878Z" fill="#202F3A"/>
<path d="M77.594 75.6438V76.0438L77.094 76.2438V75.8438L77.594 75.6438Z" fill="#19242D"/>
<path d="M76.894 75.8438V76.2438L73.694 74.3438V73.9438L76.894 75.8438Z" fill="#11191F"/>
<path d="M77.059 75.8938V76.2938H76.859V75.8938H77.059Z" fill="#202F3A"/>
<path d="M77.594 75.5438C77.594 75.6438 77.594 75.6438 77.594 75.5438L77.094 75.8438H76.894L73.794 73.9438C73.794 73.9438 73.694 73.8438 73.794 73.8438L74.294 73.6438H74.494L77.594 75.5438Z" fill="#1C2932"/>
<path d="M74.855 73.3878C74.755 73.3878 74.755 73.2878 74.855 73.3878Z" fill="#202F3A"/>
<path d="M78.594 75.0438V75.4438L78.094 75.6438V75.2438L78.594 75.0438Z" fill="#19242D"/>
<path d="M77.894 75.2438V75.6438L74.794 73.7438V73.3438L77.894 75.2438Z" fill="#11191F"/>
<path d="M78.115 75.2938V75.6938H77.915V75.2938H78.115Z" fill="#202F3A"/>
<path d="M78.594 74.9438C78.694 75.0438 78.694 74.9438 78.594 74.9438C78.594 75.0438 78.594 75.0438 78.594 74.9438L78.094 75.2438H77.894L74.794 73.3438C74.694 73.3438 74.694 73.2438 74.794 73.2438L75.294 73.0438H75.494L78.594 74.9438Z" fill="#1C2932"/>
<path d="M75.962 72.7868C75.862 72.7868 75.862 72.6868 75.962 72.7868Z" fill="#202F3A"/>
<path d="M79.694 74.4438V74.8438L79.194 75.0438V74.6438L79.694 74.4438Z" fill="#19242D"/>
<path d="M78.994 74.7438V75.1438L75.894 73.2438V72.8438L78.994 74.7438Z" fill="#11191F"/>
<path d="M79.222 74.6938V75.0938H79.022V74.6938H79.222Z" fill="#202F3A"/>
<path d="M79.694 74.3438C79.794 74.4438 79.794 74.3438 79.694 74.3438C79.694 74.4438 79.694 74.4438 79.694 74.3438L79.194 74.6438H78.994L75.894 72.7438V72.6438L76.394 72.4438H76.594L79.694 74.3438Z" fill="#1C2932"/>
<path d="M81.607 69.5899C81.507 69.5899 81.507 69.4899 81.607 69.5899Z" fill="#202F3A"/>
<path d="M85.394 71.2438V71.6438L84.894 71.8438V71.4438L85.394 71.2438Z" fill="#19242D"/>
<path d="M84.694 71.5438V71.9438L81.594 70.0438V69.6438L84.694 71.5438Z" fill="#11191F"/>
<path d="M84.866 71.4978V71.8978H84.666V71.4978H84.866Z" fill="#202F3A"/>
<path d="M85.394 71.1438C85.394 71.2438 85.394 71.2438 85.394 71.1438L84.894 71.4438H84.694L81.594 69.5438C81.594 69.5438 81.494 69.4438 81.594 69.4438L82.094 69.2438H82.294L85.394 71.1438Z" fill="#1C2932"/>
<path d="M82.662 68.9909C82.562 68.9909 82.562 68.8909 82.662 68.9909Z" fill="#202F3A"/>
<path d="M86.394 70.6438V71.0438L85.894 71.2438V70.8438L86.394 70.6438Z" fill="#19242D"/>
<path d="M85.694 70.9438V71.3438L82.594 69.4438V69.0438L85.694 70.9438Z" fill="#11191F"/>
<path d="M85.922 70.8969V71.2969H85.722V70.8969H85.922Z" fill="#202F3A"/>
<path d="M86.394 70.5438C86.494 70.6438 86.494 70.5438 86.394 70.5438C86.394 70.6438 86.394 70.6438 86.394 70.5438L85.894 70.8438H85.694L82.594 68.9438C82.594 68.9438 82.494 68.8438 82.594 68.8438L83.094 68.6438H83.294L86.394 70.5438Z" fill="#1C2932"/>
<path d="M88.925 65.3958C88.825 65.3958 88.825 65.2958 88.925 65.3958Z" fill="#202F3A"/>
<path d="M92.694 67.0438V67.4438L92.194 67.6438V67.2438L92.694 67.0438Z" fill="#19242D"/>
<path d="M91.994 67.3438V67.7438L88.894 65.8438V65.4438L91.994 67.3438Z" fill="#11191F"/>
<path d="M92.184 67.3038V67.7038H91.984V67.3038H92.184Z" fill="#202F3A"/>
<path d="M92.694 66.9438C92.694 67.0438 92.694 67.0438 92.694 66.9438L92.194 67.2438H91.994L88.894 65.3438C88.894 65.3438 88.794 65.2438 88.894 65.2438L89.394 65.0438H89.594L92.694 66.9438Z" fill="#1C2932"/>
<path d="M89.98 64.7968C89.88 64.7968 89.88 64.6968 89.98 64.7968Z" fill="#202F3A"/>
<path d="M93.694 66.4438V66.8438L93.194 67.0438V66.6438L93.694 66.4438Z" fill="#19242D"/>
<path d="M93.094 66.7438V67.1438L89.994 65.2438V64.8438L93.094 66.7438Z" fill="#11191F"/>
<path d="M93.24 66.7039V67.1039H93.04V66.7039H93.24Z" fill="#202F3A"/>
<path d="M93.794 66.3438C93.794 66.4438 93.794 66.4438 93.794 66.3438L93.294 66.6438H93.094L89.994 64.7438C89.994 64.7438 89.894 64.6438 89.994 64.6438L90.494 64.4438H90.694L93.794 66.3438Z" fill="#1C2932"/>
<path d="M84.73 67.7409C84.63 67.7409 84.63 67.6409 84.73 67.7409Z" fill="#202F3A"/>
<path d="M88.494 69.4438V69.8438L87.994 70.0438V69.6438L88.494 69.4438Z" fill="#19242D"/>
<path d="M87.794 69.6438V70.0438L84.694 68.1438V67.7438L87.794 69.6438Z" fill="#11191F"/>
<path d="M87.99 69.6478V70.0478H87.79V69.6478H87.99Z" fill="#202F3A"/>
<path d="M88.494 69.3438C88.494 69.4438 88.494 69.4438 88.494 69.3438L87.994 69.6438H87.794L84.694 67.7438C84.694 67.7438 84.594 67.6438 84.694 67.6438L85.194 67.4438H85.394L88.494 69.3438Z" fill="#1C2932"/>
<path d="M85.785 67.1408C85.685 67.1408 85.685 67.0408 85.785 67.1408Z" fill="#202F3A"/>
<path d="M89.594 68.8438V69.2438L89.094 69.4438V69.0438L89.594 68.8438Z" fill="#19242D"/>
<path d="M88.894 69.0438V69.4438L85.694 67.5438V67.1438L88.894 69.0438Z" fill="#11191F"/>
<path d="M89.045 69.0468V69.4468H88.845V69.0468H89.045Z" fill="#202F3A"/>
<path d="M89.594 68.7438C89.594 68.8438 89.594 68.8438 89.594 68.7438L89.094 69.0438H88.894L85.694 67.1438C85.594 67.1438 85.594 67.0438 85.694 67.0438L86.194 66.8438H86.394L89.594 68.7438Z" fill="#1C2932"/>
<path d="M86.893 66.5418C86.793 66.5418 86.793 66.4418 86.893 66.5418Z" fill="#202F3A"/>
<path d="M90.694 68.2438V68.6438L90.194 68.8438V68.4438L90.694 68.2438Z" fill="#19242D"/>
<path d="M89.994 68.4438V68.8438L86.894 66.9438V66.5438L89.994 68.4438Z" fill="#11191F"/>
<path d="M90.152 68.4489V68.8489H89.952V68.4489H90.152Z" fill="#202F3A"/>
<path d="M90.694 68.1438C90.694 68.2438 90.694 68.2438 90.694 68.1438L90.194 68.4438H89.994L86.894 66.5438C86.894 66.5438 86.794 66.4438 86.894 66.4438L87.394 66.2438H87.594L90.694 68.1438Z" fill="#1C2932"/>
<path d="M92.302 63.3648C92.202 63.3648 92.202 63.2648 92.302 63.3648Z" fill="#202F3A"/>
<path d="M96.094 65.0438V65.4438L95.594 65.6438V65.2438L96.094 65.0438Z" fill="#19242D"/>
<path d="M95.394 65.2438V65.6438L92.294 63.7438V63.3438L95.394 65.2438Z" fill="#11191F"/>
<path d="M95.561 65.2719V65.6719H95.361V65.2719H95.561Z" fill="#202F3A"/>
<path d="M96.094 64.9438C96.194 65.0438 96.194 64.9438 96.094 64.9438L95.594 65.2438H95.394L92.294 63.3438C92.194 63.3438 92.194 63.2438 92.294 63.2438L92.794 63.0438H92.994L96.094 64.9438Z" fill="#1C2932"/>
<path d="M93.357 62.7638C93.257 62.7638 93.257 62.6638 93.357 62.7638Z" fill="#202F3A"/>
<path d="M97.094 64.4438V64.8438L96.594 65.0438V64.6438L97.094 64.4438Z" fill="#19242D"/>
<path d="M96.394 64.6438V65.0438L93.294 63.1438V62.7438L96.394 64.6438Z" fill="#11191F"/>
<path d="M96.616 64.6708V65.0708H96.416V64.6708H96.616Z" fill="#202F3A"/>
<path d="M97.094 64.3438C97.194 64.3438 97.194 64.3438 97.094 64.3438C97.094 64.4438 97.094 64.4438 97.094 64.3438L96.694 64.6438H96.494L93.394 62.7438C93.394 62.7438 93.294 62.6438 93.394 62.6438L93.894 62.4438H94.094L97.094 64.3438Z" fill="#1C2932"/>
<path d="M94.465 62.1658C94.365 62.1658 94.365 62.0658 94.465 62.1658Z" fill="#202F3A"/>
<path d="M98.194 63.8438V64.2438L97.694 64.4438V64.0438L98.194 63.8438Z" fill="#19242D"/>
<path d="M97.494 64.0438V64.4438L94.394 62.5438V62.1438L97.494 64.0438Z" fill="#11191F"/>
<path d="M97.725 64.0718V64.4718H97.525V64.0718H97.725Z" fill="#202F3A"/>
<path d="M98.194 63.7438C98.294 63.7438 98.294 63.7438 98.194 63.7438C98.194 63.8438 98.194 63.8438 98.194 63.7438L97.794 64.0438H97.594L94.494 62.1438V62.0438L94.994 61.8438H95.194L98.194 63.7438Z" fill="#1C2932"/>
<path d="M85.494 92.0438C85.794 92.4438 85.894 93.0438 85.794 93.5438C85.694 94.4438 85.594 94.8438 85.394 95.0438C84.994 95.2438 84.594 95.3438 84.194 95.2438C83.794 95.1438 83.394 95.0438 83.094 94.8438L81.294 94.2438C80.194 94.0438 79.294 93.3438 78.794 92.3438C78.694 91.9438 79.194 91.3438 80.294 91.4438C81.194 91.6438 81.994 91.7438 82.894 91.6438C83.694 91.6438 84.594 91.7438 85.494 92.0438Z" fill="#492200"/>
<path d="M82.794 84.4438C82.394 87.0438 82.294 89.7438 82.294 92.4438C82.394 93.4438 85.494 94.8438 86.094 93.8438C86.394 93.3438 87.194 84.6438 87.194 84.6438L82.794 84.4438Z" fill="#181818"/>
<path d="M99.833 98.6938L100.133 98.4938H99.933L91.333 93.6938C91.233 93.6938 91.133 93.5938 91.133 93.4938L90.833 93.6938C90.933 93.7938 90.933 93.8938 91.033 93.8938L99.633 98.6938H99.833Z" fill="#F8FCFF"/>
<path d="M90.86 93.6238L91.16 93.4238C91.06 93.3238 91.06 93.2238 91.06 93.0238C91.06 92.7238 92.06 86.4238 92.16 85.5238C92.16 85.3238 92.26 85.1238 92.36 85.0238L92.06 85.3238C91.86 85.4238 91.86 85.6238 91.86 85.7238C91.76 86.6238 90.76 92.9238 90.76 93.2238C90.76 93.4238 90.76 93.5238 90.86 93.6238ZM92.536 85.0258L92.836 84.9258H92.736C92.536 84.7258 92.436 84.7258 92.236 84.7258H92.136L91.836 84.9258H91.936C92.136 84.9258 92.336 84.9258 92.536 85.0258Z" fill="#8D898A"/>
<path d="M100.043 99.0918L100.343 98.8918C100.543 98.6918 100.543 98.2918 100.543 98.2918C100.543 98.1918 99.343 90.4918 99.243 89.4918C99.243 89.0918 99.043 88.7918 98.843 88.3918C98.643 88.1918 98.643 88.1918 97.143 87.2918C96.243 86.7918 94.943 86.0918 92.843 84.8918L92.543 85.0918C94.643 86.2918 96.043 86.9918 96.843 87.4918C98.443 88.2918 98.343 88.2918 98.543 88.5918C98.743 88.8918 98.943 89.2918 98.943 89.6918C99.043 90.6918 100.243 98.3918 100.243 98.4918C100.243 98.4918 100.243 98.8918 100.043 99.0918C100.143 99.0918 100.143 99.0918 100.043 99.0918Z" fill="#F8FCFF"/>
<path d="M90.494 93.0438C90.494 93.2438 90.494 93.5438 90.594 93.7438C90.694 93.9438 90.894 94.1438 90.994 94.2438L99.694 99.0438C99.894 99.1438 100.094 99.1438 100.094 99.0438C100.294 98.9438 100.194 98.5438 100.194 98.4438C100.194 98.3438 98.994 90.6438 98.894 89.6438C98.894 89.2438 98.694 88.9438 98.494 88.5438C98.294 88.2438 98.294 88.2438 96.794 87.3438C95.894 86.8438 94.594 86.1438 92.494 84.9438H92.394C92.194 84.8438 91.994 84.8438 91.794 84.8438C91.594 84.9438 91.494 85.1438 91.394 85.4438C91.494 86.4438 90.494 92.9438 90.494 93.0438ZM90.794 93.6438C90.694 93.5438 90.694 93.3438 90.694 93.2438C90.694 92.9438 91.694 86.6438 91.794 85.7438C91.794 85.4438 91.894 85.3438 92.094 85.2438C92.194 85.2438 92.394 85.2438 92.494 85.3438L95.094 86.7438L95.394 86.9438L97.994 88.3438C98.194 88.4438 98.294 88.5438 98.394 88.7438C98.694 89.1438 98.494 88.6438 99.894 98.3438C99.894 98.4438 99.894 98.6438 99.794 98.6438H99.594L90.994 93.8438L90.794 93.6438Z" fill="#515151"/>
<path d="M93.08 103.074L93.38 102.874H93.18L84.68 97.7739C84.58 97.7739 84.48 97.6739 84.48 97.5739L84.18 97.7739C84.18 97.8739 84.28 97.9739 84.38 97.9739L92.78 103.074H93.08Z" fill="#F8FCFF"/>
<path d="M84.217 97.7498L84.517 97.5498C84.417 97.4498 84.417 97.2498 84.417 97.1498C84.417 96.8498 85.617 90.5498 85.717 89.7498C85.717 89.5498 85.817 89.4498 85.917 89.2498L85.717 89.4498C85.517 89.5498 85.417 89.6498 85.417 89.8498C85.317 90.7498 84.217 97.0498 84.117 97.3498C84.117 97.4498 84.117 97.5498 84.217 97.7498Z" fill="#F8FCFF"/>
<path d="M86.184 89.1528L86.484 89.0528H86.384C86.284 88.8528 86.084 88.8528 85.884 88.8528H85.784L85.484 89.0528H85.584C85.784 88.9528 85.984 89.0528 86.184 89.1528Z" fill="#8D898A"/>
<path d="M93.287 103.436L93.587 103.236C93.787 103.136 93.687 102.736 93.687 102.636C93.687 102.536 92.787 94.7358 92.687 93.8358C92.687 93.4358 92.587 93.0358 92.387 92.7358C92.187 92.5358 92.187 92.5358 90.687 91.5358C89.887 91.0358 88.587 90.3358 86.487 89.0358L86.187 89.2358C88.287 90.5358 89.587 91.2358 90.387 91.7358C91.887 92.6358 91.887 92.6358 92.087 92.9358C92.287 93.3358 92.387 93.6358 92.487 94.0358C92.587 95.0358 93.487 102.736 93.487 102.836C93.387 102.936 93.487 103.236 93.287 103.436Z" fill="#F8FCFF"/>
<path d="M83.894 97.0438C83.894 97.2438 83.894 97.5438 83.994 97.7438C84.094 97.9438 84.194 98.1438 84.394 98.2438L92.794 103.344C92.994 103.444 93.194 103.444 93.194 103.444C93.394 103.344 93.294 102.944 93.294 102.844C93.294 102.744 92.394 94.9438 92.294 94.0438C92.294 93.6438 92.194 93.2438 91.994 92.9438C91.794 92.6438 91.794 92.6438 90.294 91.7438C89.494 91.2438 88.194 90.4438 86.094 89.2438H85.994C85.794 89.1438 85.594 89.0438 85.394 89.1438C85.194 89.2438 85.094 89.4438 84.994 89.7438C85.094 90.5438 83.894 97.0438 83.894 97.0438ZM84.194 97.7438C84.094 97.6438 84.094 97.4438 84.094 97.3438C84.194 97.0438 85.294 90.7438 85.394 89.9438C85.394 89.6438 85.494 89.5438 85.694 89.4438C85.794 89.4438 85.994 89.4438 86.094 89.5438L88.694 91.0438L88.994 91.2438L91.494 92.7438C91.594 92.8438 91.794 92.9438 91.894 93.1438C92.194 93.5438 91.994 93.0438 93.094 102.744C93.094 102.844 93.094 103.044 92.994 103.044H92.794C91.794 102.444 85.394 98.5438 84.394 97.9438C84.294 97.9438 84.194 97.8438 84.194 97.7438Z" fill="#515151"/>
<path d="M84.473 87.8268V90.0268C84.473 90.3268 84.673 90.5268 84.973 90.6268V88.4268C84.673 88.3268 84.473 88.1268 84.473 87.8268ZM99.113 88.4178V90.6178C99.413 90.5178 99.513 90.2178 99.613 90.0178V87.8178C99.513 88.1178 99.413 88.3178 99.113 88.4178Z" fill="#222120"/>
<path d="M84.894 88.4438V90.6438L90.894 94.1438V91.9438L84.894 88.4438ZM93.094 91.9438V94.1438L99.094 90.6438V88.4438L93.094 91.9438Z" fill="#222120"/>
<path d="M90.895 91.9308V94.1308C91.595 94.5308 92.395 94.5308 93.095 94.1308V91.9308C92.395 92.3308 91.595 92.3308 90.895 91.9308Z" fill="#222120"/>
<path d="M84.894 87.1438C84.494 87.2438 84.394 87.6438 84.494 88.0438C84.594 88.2438 84.694 88.4438 84.894 88.4438L90.894 91.9438C91.594 92.3438 92.394 92.3438 93.094 91.9438L99.094 88.4438C99.494 88.3438 99.594 87.9438 99.494 87.5438C99.394 87.3438 99.294 87.1438 99.094 87.1438L93.094 83.6438C92.394 83.2438 91.594 83.2438 90.894 83.6438L84.894 87.1438Z" fill="#363533"/>
<path d="M82.694 95.0438C82.994 95.4438 83.194 96.0438 83.194 96.5438C83.194 97.5438 83.094 97.8438 82.894 98.0438C82.594 98.3438 82.094 98.6438 81.594 98.6438C80.994 98.5438 80.494 98.4438 79.894 98.3438C79.494 98.2438 79.194 98.2438 77.994 97.9438C76.794 97.6438 75.094 96.8438 74.994 96.3438C74.894 95.9438 74.594 95.1438 76.094 95.2438C77.594 95.3438 79.494 95.4438 79.994 94.8438C80.494 94.2438 82.694 95.0438 82.694 95.0438Z" fill="#492200"/>
<path d="M80.794 82.7438C79.594 82.8438 78.594 83.8438 78.694 85.0438V85.1438C78.894 88.0438 79.294 92.6438 79.194 94.5438C79.194 94.8438 78.994 95.1438 78.794 95.3438C79.094 96.6438 80.094 97.5438 81.394 97.7438C82.394 97.7438 83.394 97.3438 83.394 97.0438L83.194 86.5438C83.094 86.4438 82.194 82.6438 80.794 82.7438Z" fill="#181818"/>
<path d="M80.651 86.7688L90.351 81.1688C90.251 81.2688 90.151 81.3688 90.151 81.5688L80.551 87.1688C80.551 86.9688 80.551 86.8688 80.651 86.7688Z" fill="#231F20"/>
<path d="M96.094 83.9438L93.594 82.8438L88.394 80.7438C87.094 80.1438 83.794 80.1438 83.894 82.8438L83.094 87.2438L89.294 86.3438C89.294 86.3438 93.194 88.0438 94.894 87.8438C97.794 87.5438 96.094 83.9438 96.094 83.9438Z" fill="#181818"/>
<path d="M96.594 88.5438C97.894 87.5438 97.494 84.3438 97.494 84.3438L97.194 79.0438L91.694 81.9438L89.894 84.6438L81.194 82.6438C78.894 82.6438 78.994 84.6438 79.294 87.1438L80.294 87.5438C80.794 87.6438 81.394 87.6438 81.894 87.4438C82.494 87.0438 82.594 86.7438 82.594 86.7438C85.194 87.8438 87.894 88.8438 90.494 89.6438C93.994 90.3438 95.294 89.5438 96.594 88.5438Z" fill="#181818"/>
<path d="M86.994 71.9438C86.994 71.9438 85.194 70.5438 84.794 70.2438C84.094 69.9438 83.194 69.7438 82.394 69.7438L81.194 70.1438C81.194 70.1438 80.994 70.2438 81.294 70.4438C81.594 70.6438 82.294 70.3438 82.294 70.3438L83.294 70.5438C83.294 70.5438 83.894 70.8438 83.794 71.0438C83.694 71.2438 83.194 71.1438 82.894 71.0438C82.694 71.0438 82.394 70.9438 82.194 71.0438C82.094 71.1438 82.094 71.3438 82.194 71.4438L83.094 71.7438C83.694 71.9438 84.094 72.0438 84.494 72.1438C84.794 72.2438 85.094 72.1438 85.394 72.0438L86.294 72.7438L86.994 71.9438Z" fill="#FFD4AF"/>
<path d="M92.394 74.9438L91.294 74.3438L90.494 74.8438L91.594 75.4438L92.394 74.9438Z" fill="#985710"/>
<path d="M94.894 69.5438C94.894 69.5438 94.394 68.8438 94.294 68.4438C93.994 67.9438 93.394 65.9438 93.394 65.9438L90.694 66.8438C90.794 67.5438 90.894 68.2438 91.094 68.9438C91.194 69.3438 91.894 70.7438 91.894 70.7438C91.894 71.2438 89.994 74.4438 90.094 75.8438L95.194 73.6438C95.094 73.1438 94.894 69.5438 94.894 69.5438ZM80.894 75.4438C80.894 75.4438 79.394 73.5438 79.194 73.4438C78.994 73.2438 78.694 73.1438 78.294 73.1438C77.694 73.2438 77.094 73.3438 76.494 73.5438C76.494 73.5438 75.694 74.2438 75.994 74.5438C76.494 74.7438 76.994 74.9438 77.494 74.9438C77.994 75.2438 78.394 75.5438 78.794 75.9438C79.194 76.2438 79.794 76.4438 80.294 76.4438L80.894 75.4438Z" fill="#FFD4AF"/>
<path d="M95.494 69.5438C95.494 69.5438 98.694 69.7438 97.494 73.6438C96.794 75.0438 95.994 76.3438 94.994 77.5438C94.094 78.4438 92.194 78.3438 90.694 77.1438C89.594 76.2438 85.094 73.3438 85.094 73.3438C84.894 72.6438 85.094 71.9438 85.594 71.4438C85.694 71.2438 85.994 71.1438 86.294 71.1438L92.094 74.0438L95.494 69.5438Z" fill="#66C2F7"/>
<path d="M88.494 62.8438L86.794 64.2438L88.694 68.7438C89.294 70.2438 89.994 70.2438 90.494 70.0438C91.394 69.6438 92.094 69.0438 92.694 68.3438C93.494 67.3438 92.894 65.6438 92.894 65.5438L91.994 61.9438L88.494 62.8438Z" fill="#FFD4AF"/>
<path d="M86.894 62.9438C86.694 63.2438 86.494 63.5438 86.594 63.8438C86.694 64.2438 86.894 64.5438 87.194 64.8438C87.494 65.2438 88.694 66.5438 88.894 66.7438C88.894 66.7438 89.194 66.7438 89.194 66.5438C88.994 65.3438 89.694 65.8438 90.594 66.6438C90.994 66.9438 91.394 67.2438 91.894 67.4438C92.494 67.7438 93.294 67.6438 93.794 67.2438C93.894 66.6438 93.994 65.9438 93.994 65.2438C93.994 62.7438 93.494 61.6438 92.594 60.9438C91.194 60.2438 89.594 60.3438 88.394 61.3438C87.794 61.8438 87.294 62.3438 86.894 62.9438Z" fill="#FF8116"/>
<path d="M89.694 66.0438C89.594 65.8438 89.294 65.6438 89.094 65.6438C88.994 65.5438 88.794 65.4438 88.694 65.5438C88.694 65.5438 88.494 65.6438 88.694 65.9438C88.894 66.1438 89.094 66.3438 89.094 66.6438C89.194 66.8438 89.294 67.3438 89.294 67.3438C89.294 67.3438 89.494 67.5438 89.594 67.1438C89.694 67.0438 89.794 66.9438 89.794 66.8438C89.794 66.5438 89.794 66.3438 89.694 66.0438Z" fill="#FFD4AF"/>
<path d="M89.594 72.5438C88.994 73.2438 89.494 75.4438 89.694 77.6438L90.094 83.4438C89.894 84.3438 89.594 85.2438 89.094 86.1438C88.794 86.6438 88.394 87.0438 90.394 88.3438C91.594 88.8438 92.894 89.1438 94.294 89.1438C96.294 89.0438 97.894 88.2438 97.894 87.4438V74.3438C97.494 69.4438 95.094 69.1438 95.094 69.1438L92.094 70.5438L89.594 72.5438Z" fill="#0B8DD8"/>
<path d="M94.994 69.2438C94.094 69.5438 93.294 69.8438 92.494 70.2438C91.894 70.5438 91.494 70.9438 90.994 71.4438C91.194 70.9438 91.494 70.4438 91.794 70.0438C92.294 69.2438 93.094 68.7438 93.894 68.4438C94.294 68.3438 94.394 68.5438 94.394 68.5438L94.994 69.2438Z" fill="white"/>
<path d="M95.694 69.4438C94.594 69.5438 93.594 69.8438 92.694 70.4438C91.894 70.9438 90.494 71.8438 90.494 71.8438L91.694 70.6438C92.394 69.8438 93.394 69.2438 94.394 69.0438C94.694 68.9438 94.794 68.8438 95.094 69.0438C95.194 69.1438 95.694 69.4438 95.694 69.4438ZM78.994 77.1438C78.994 77.1438 82.394 79.5438 83.394 80.0438C84.094 80.3438 84.894 80.5438 85.594 80.4438C87.094 80.2438 89.094 78.5438 90.394 77.1438C91.094 76.5438 91.594 75.6438 91.794 74.6438C92.194 73.7438 91.694 72.6438 90.694 72.2438C90.494 72.1438 90.194 72.1438 89.994 72.1438C89.094 72.2438 86.794 75.7438 85.694 76.6438C85.294 76.9438 84.994 77.2438 84.494 77.0438L80.294 74.5438C79.994 74.4438 79.694 74.4438 79.494 74.6438C78.994 75.4438 78.794 76.3438 78.994 77.1438Z" fill="#66C2F7"/>
</svg>
