<svg
  width="37"
  height="43"
  viewBox="0 0 37 43"
  fill="none"
  xmlns="http://www.w3.org/2000/svg"
  fill="currentColor"
>
  <path
    d="M18.0677 35.9245L5.66811 28.7716C5.51763 28.6814 5.41731 28.5208 5.41731 28.3403V17.2849C5.41731 17.0943 5.62799 16.9739 5.7885 17.0642L20.1845 25.3708C20.3851 25.4912 20.6359 25.3407 20.6359 25.1099V19.7227C20.6359 19.512 20.5256 19.3114 20.335 19.2011L3.01965 9.20912C2.86917 9.11883 2.66853 9.11883 2.51805 9.20912L0.2508 10.5233C0.10032 10.6136 -1.08123e-06 10.7741 -1.08123e-06 10.9547V31.4903C-1.08123e-06 31.6709 0.10032 31.8314 0.2508 31.9217L18.0376 42.1945C18.1881 42.2848 18.3888 42.2848 18.5392 42.1945L33.477 33.567C33.6776 33.4466 33.6776 33.1657 33.477 33.0453L28.8221 30.3567C28.6315 30.2464 28.4108 30.2464 28.2202 30.3567L18.5794 35.9245C18.4289 36.0148 18.2283 36.0148 18.0778 35.9245H18.0677Z"
  />
  <path
    d="M36.3261 10.5133L18.5392 0.250491C18.3888 0.160202 18.1881 0.160202 18.0376 0.250491L8.6376 5.67784C8.43696 5.79822 8.43696 6.07912 8.6376 6.1995L13.2524 8.86803C13.443 8.97838 13.6637 8.97838 13.8543 8.86803L18.0677 6.44027C18.2182 6.34998 18.4189 6.34998 18.5693 6.44027L30.969 13.5931C31.1195 13.6834 31.2198 13.8439 31.2198 14.0245V25.13C31.2198 25.3407 31.3301 25.5413 31.5207 25.6517L36.1355 28.3102C36.3361 28.4306 36.5869 28.2801 36.5869 28.0493V10.9547C36.5869 10.7741 36.4866 10.6136 36.3361 10.5233L36.3261 10.5133Z"
  />
</svg>
