<svg width="79" height="104" viewBox="0 0 79 104" fill="none" xmlns="http://www.w3.org/2000/svg">
<path d="M8.55751 13.779C8.55751 27.5581 17.115 35.8255 34.23 40.1768L52.3603 44.383C68.6051 48.1541 78.468 57.4368 78.468 72.5212C78.613 79.0482 76.4374 85.43 72.5213 90.6516C72.5213 75.5671 64.689 67.4448 45.9785 62.5133L28.1382 58.4521C13.779 55.2612 2.75581 47.5739 2.75581 31.1841C2.75581 24.9473 4.78641 18.7105 8.55751 13.779Z" fill="#F04939"/>
<path d="M61.353 68.7501C69.0402 73.6816 72.5212 80.6436 72.5212 90.6516C65.9943 98.919 54.8261 103.415 41.6272 103.415C19.4357 103.415 3.62606 92.3921 0.290085 73.3915H21.6113C24.3671 82.0941 31.6193 86.1552 41.4822 86.1552C53.2306 86.3003 61.2079 79.9184 61.353 68.7501ZM8.55751 13.634C14.7943 5.51161 25.5275 0.58017 38.5813 0.58017C61.353 0.58017 74.4068 12.6187 77.7428 29.4436H57.1467C54.8261 22.7717 49.1694 17.5501 38.8714 17.5501C27.7031 17.6952 20.1609 24.0771 19.7258 34.23C12.2518 30.1082 8.26742 22.0465 8.55751 13.634Z" fill="#F37368"/>
</svg>
